<svg width="241" height="189" viewBox="0 0 241 189" fill="none" xmlns="http://www.w3.org/2000/svg">
<g id="Frame" clip-path="url(#clip0_11_28)">
<g id="Group">
<g id="XMLID_2_">
<g id="Group_2">
<path id="Vector" d="M241 137.456H232.396V146.045H241V137.456Z" fill="url(#paint0_linear_11_28)"/>
<path id="Vector_2" d="M241 128.865H232.396V137.456H241V128.865Z" fill="#682E87"/>
<path id="Vector_3" d="M241 120.273H232.396V128.865H241V120.273Z" fill="#682E87"/>
<path id="Vector_4" d="M241 111.685H232.396V120.273H241V111.685Z" fill="#682E87"/>
<path id="Vector_5" d="M241 103.09H232.396V111.685H241V103.09Z" fill="#682E87"/>
<path id="Vector_6" d="M241 94.5015H232.396V103.09H241V94.5015Z" fill="#682E87"/>
<path id="Vector_7" d="M241 85.9099H232.396V94.5015H241V85.9099Z" fill="#682E87"/>
<path id="Vector_8" d="M241 77.3154H232.396V85.9069H241V77.3154Z" fill="#682E87"/>
<path id="Vector_9" d="M241 68.7238H232.396V77.3154H241V68.7238Z" fill="#682E87"/>
<path id="Vector_10" d="M241 60.1351H232.396V68.7238H241V60.1351Z" fill="#682E87"/>
<path id="Vector_11" d="M241 51.5436H232.396V60.1352H241V51.5436Z" fill="#682E87"/>
<path id="Vector_12" d="M241 42.952H232.396V51.5436H241V42.952Z" fill="#682E87"/>
<path id="Vector_13" d="M241 34.3604H232.396V42.952H241V34.3604Z" fill="#682E87"/>
<path id="Vector_14" d="M241 25.7718H232.396V34.3604H241V25.7718Z" fill="#682E87"/>
<path id="Vector_15" d="M241 17.1802H232.396V25.7718H241V17.1802Z" fill="#682E87"/>
<path id="Vector_16" d="M241 8.58862H232.396V17.1802H241V8.58862Z" fill="url(#paint1_linear_11_28)"/>
<path id="Vector_17" d="M232.395 146.045H223.787V154.637H232.395V146.045Z" fill="url(#paint2_linear_11_28)"/>
<path id="Vector_18" d="M232.395 137.456H223.787V146.045H232.395V137.456Z" fill="#682E87"/>
<path id="Vector_19" d="M232.395 128.865H223.787V137.456H232.395V128.865Z" fill="#682E87"/>
<path id="Vector_20" d="M232.395 120.273H223.787V128.865H232.395V120.273Z" fill="#532C6D"/>
<path id="Vector_21" d="M232.395 111.685H223.787V120.273H232.395V111.685Z" fill="#532C6D"/>
<path id="Vector_22" d="M232.395 103.09H223.787V111.685H232.395V103.09Z" fill="#532C6D"/>
<path id="Vector_23" d="M232.395 94.5015H223.787V103.09H232.395V94.5015Z" fill="#532C6D"/>
<path id="Vector_24" d="M232.395 85.9099H223.787V94.5015H232.395V85.9099Z" fill="#532C6D"/>
<path id="Vector_25" d="M232.395 77.3154H223.787V85.9069H232.395V77.3154Z" fill="#532C6D"/>
<path id="Vector_26" d="M232.395 68.7238H223.787V77.3154H232.395V68.7238Z" fill="#532C6D"/>
<path id="Vector_27" d="M232.395 60.1351H223.787V68.7238H232.395V60.1351Z" fill="#532C6D"/>
<path id="Vector_28" d="M232.395 51.5436H223.787V60.1352H232.395V51.5436Z" fill="#532C6D"/>
<path id="Vector_29" d="M232.395 42.952H223.787V51.5436H232.395V42.952Z" fill="#532C6D"/>
<path id="Vector_30" d="M232.395 34.3604H223.787V42.952H232.395V34.3604Z" fill="#532C6D"/>
<path id="Vector_31" d="M232.395 25.7718H223.787V34.3604H232.395V25.7718Z" fill="#532C6D"/>
<path id="Vector_32" d="M232.395 17.1802H223.787V25.7718H232.395V17.1802Z" fill="#532C6D"/>
<path id="Vector_33" d="M232.395 8.58862H223.787V17.1802H232.395V8.58862Z" fill="#682E87"/>
<path id="Vector_34" d="M232.395 0H223.787V8.58864H232.395V0Z" fill="url(#paint3_linear_11_28)"/>
<path id="Vector_35" d="M223.787 146.045H215.18V154.637H223.787V146.045Z" fill="#682E87"/>
<path id="Vector_36" d="M223.787 137.456H215.18V146.045H223.787V137.456Z" fill="#682E87"/>
<path id="Vector_37" d="M223.787 128.865H215.18V137.456H223.787V128.865Z" fill="#532C6D"/>
<path id="Vector_38" d="M223.787 120.273H215.18V128.865H223.787V120.273Z" fill="#898989"/>
<path id="Vector_39" d="M223.787 111.685H215.18V120.273H223.787V111.685Z" fill="#898989"/>
<path id="Vector_40" d="M223.787 103.09H215.18V111.685H223.787V103.09Z" fill="#898989"/>
<path id="Vector_41" d="M223.787 94.5015H215.18V103.09H223.787V94.5015Z" fill="#898989"/>
<path id="Vector_42" d="M223.787 85.9099H215.18V94.5015H223.787V85.9099Z" fill="#898989"/>
<path id="Vector_43" d="M223.787 77.3154H215.18V85.9069H223.787V77.3154Z" fill="#898989"/>
<path id="Vector_44" d="M223.787 68.7238H215.18V77.3154H223.787V68.7238Z" fill="#898989"/>
<path id="Vector_45" d="M223.787 60.1351H215.18V68.7238H223.787V60.1351Z" fill="#898989"/>
<path id="Vector_46" d="M223.787 51.5436H215.18V60.1352H223.787V51.5436Z" fill="#898989"/>
<path id="Vector_47" d="M223.787 42.952H215.18V51.5436H223.787V42.952Z" fill="#898989"/>
<path id="Vector_48" d="M223.787 34.3604H215.18V42.952H223.787V34.3604Z" fill="#898989"/>
<path id="Vector_49" d="M223.787 25.7718H215.18V34.3604H223.787V25.7718Z" fill="#898989"/>
<path id="Vector_50" d="M223.787 17.1802H215.18V25.7718H223.787V17.1802Z" fill="#898989"/>
<path id="Vector_51" d="M223.787 8.58862H215.18V17.1802H223.787V8.58862Z" fill="#898989"/>
<path id="Vector_52" d="M223.787 0H215.18V8.58864H223.787V0Z" fill="#682E87"/>
<path id="Vector_53" d="M215.18 146.045H206.572V154.637H215.18V146.045Z" fill="#682E87"/>
<path id="Vector_54" d="M215.18 137.456H206.572V146.045H215.18V137.456Z" fill="#532C6D"/>
<path id="Vector_55" d="M215.18 128.865H206.572V137.456H215.18V128.865Z" fill="#898989"/>
<path id="Vector_56" d="M215.18 120.273H206.572V128.865H215.18V120.273Z" fill="white"/>
<path id="Vector_57" d="M215.18 111.685H206.572V120.273H215.18V111.685Z" fill="white"/>
<path id="Vector_58" d="M215.18 103.09H206.572V111.685H215.18V103.09Z" fill="white"/>
<path id="Vector_59" d="M215.18 94.5015H206.572V103.09H215.18V94.5015Z" fill="white"/>
<path id="Vector_60" d="M215.18 85.9099H206.572V94.5015H215.18V85.9099Z" fill="white"/>
<path id="Vector_61" d="M215.18 77.3154H206.572V85.9069H215.18V77.3154Z" fill="white"/>
<path id="Vector_62" d="M215.18 68.7238H206.572V77.3154H215.18V68.7238Z" fill="white"/>
<path id="Vector_63" d="M215.18 60.1351H206.572V68.7238H215.18V60.1351Z" fill="white"/>
<path id="Vector_64" d="M215.18 51.5436H206.572V60.1352H215.18V51.5436Z" fill="white"/>
<path id="Vector_65" d="M215.18 42.952H206.572V51.5436H215.18V42.952Z" fill="white"/>
<path id="Vector_66" d="M215.18 34.3604H206.572V42.952H215.18V34.3604Z" fill="white"/>
<path id="Vector_67" d="M215.18 25.7718H206.572V34.3604H215.18V25.7718Z" fill="white"/>
<path id="Vector_68" d="M215.18 17.1802H206.572V25.7718H215.18V17.1802Z" fill="white"/>
<path id="Vector_69" d="M215.18 8.58862H206.572V17.1802H215.18V8.58862Z" fill="white"/>
<path id="Vector_70" d="M215.18 0H206.572V8.58864H215.18V0Z" fill="#682E87"/>
<path id="Vector_71" d="M206.572 146.045H197.967V154.637H206.572V146.045Z" fill="#682E87"/>
<path id="Vector_72" d="M206.572 137.456H197.967V146.045H206.572V137.456Z" fill="#532C6D"/>
<path id="Vector_73" d="M206.572 128.865H197.967V137.456H206.572V128.865Z" fill="#898989"/>
<path id="Vector_74" d="M206.572 120.273H197.967V128.865H206.572V120.273Z" fill="white"/>
<path id="Vector_75" d="M206.572 111.685H197.967V120.273H206.572V111.685Z" fill="#AAB5C1"/>
<path id="Vector_76" d="M206.572 103.09H197.967V111.685H206.572V103.09Z" fill="white"/>
<path id="Vector_77" d="M206.572 94.5015H197.967V103.09H206.572V94.5015Z" fill="#AAB5C1"/>
<path id="Vector_78" d="M206.572 85.9099H197.967V94.5015H206.572V85.9099Z" fill="white"/>
<path id="Vector_79" d="M206.572 77.3154H197.967V85.9069H206.572V77.3154Z" fill="white"/>
<path id="Vector_80" d="M206.572 68.7238H197.967V77.3154H206.572V68.7238Z" fill="white"/>
<path id="Vector_81" d="M206.572 60.1351H197.967V68.7238H206.572V60.1351Z" fill="white"/>
<path id="Vector_82" d="M206.572 51.5436H197.967V60.1352H206.572V51.5436Z" fill="white"/>
<path id="Vector_83" d="M206.572 42.952H197.967V51.5436H206.572V42.952Z" fill="#AAB5C1"/>
<path id="Vector_84" d="M206.572 34.3604H197.967V42.952H206.572V34.3604Z" fill="white"/>
<path id="Vector_85" d="M206.572 25.7718H197.967V34.3604H206.572V25.7718Z" fill="white"/>
<path id="Vector_86" d="M206.572 17.1802H197.967V25.7718H206.572V17.1802Z" fill="white"/>
<path id="Vector_87" d="M206.572 8.58862H197.967V17.1802H206.572V8.58862Z" fill="white"/>
<path id="Vector_88" d="M206.572 0H197.967V8.58864H206.572V0Z" fill="#682E87"/>
<path id="Vector_89" d="M197.967 146.045H189.359V154.637H197.967V146.045Z" fill="#682E87"/>
<path id="Vector_90" d="M197.967 137.456H189.359V146.045H197.967V137.456Z" fill="#532C6D"/>
<path id="Vector_91" d="M197.967 128.865H189.359V137.456H197.967V128.865Z" fill="#898989"/>
<path id="Vector_92" d="M197.967 120.273H189.359V128.865H197.967V120.273Z" fill="white"/>
<path id="Vector_93" d="M197.967 111.685H189.359V120.273H197.967V111.685Z" fill="#AAB5C1"/>
<path id="Vector_94" d="M197.967 103.09H189.359V111.685H197.967V103.09Z" fill="white"/>
<path id="Vector_95" d="M197.967 94.5015H189.359V103.09H197.967V94.5015Z" fill="#AAB5C1"/>
<path id="Vector_96" d="M197.967 85.9099H189.359V94.5015H197.967V85.9099Z" fill="white"/>
<path id="Vector_97" d="M197.967 77.3154H189.359V85.9069H197.967V77.3154Z" fill="white"/>
<path id="Vector_98" d="M197.967 68.7238H189.359V77.3154H197.967V68.7238Z" fill="white"/>
<path id="Vector_99" d="M197.967 60.1351H189.359V68.7238H197.967V60.1351Z" fill="white"/>
<path id="Vector_100" d="M197.967 51.5436H189.359V60.1352H197.967V51.5436Z" fill="white"/>
<path id="Vector_101" d="M197.967 42.952H189.359V51.5436H197.967V42.952Z" fill="#AAB5C1"/>
<path id="Vector_102" d="M197.967 34.3604H189.359V42.952H197.967V34.3604Z" fill="white"/>
<path id="Vector_103" d="M197.967 25.7718H189.359V34.3604H197.967V25.7718Z" fill="white"/>
<path id="Vector_104" d="M197.967 17.1802H189.359V25.7718H197.967V17.1802Z" fill="white"/>
<path id="Vector_105" d="M197.967 8.58862H189.359V17.1802H197.967V8.58862Z" fill="white"/>
<path id="Vector_106" d="M197.967 0H189.359V8.58864H197.967V0Z" fill="#682E87"/>
<path id="Vector_107" d="M189.36 146.045H180.752V154.637H189.36V146.045Z" fill="#682E87"/>
<path id="Vector_108" d="M189.36 137.456H180.752V146.045H189.36V137.456Z" fill="#532C6D"/>
<path id="Vector_109" d="M189.36 128.865H180.752V137.456H189.36V128.865Z" fill="#898989"/>
<path id="Vector_110" d="M189.36 120.273H180.752V128.865H189.36V120.273Z" fill="white"/>
<path id="Vector_111" d="M189.36 111.685H180.752V120.273H189.36V111.685Z" fill="#AAB5C1"/>
<path id="Vector_112" d="M189.36 103.09H180.752V111.685H189.36V103.09Z" fill="white"/>
<path id="Vector_113" d="M189.36 94.5015H180.752V103.09H189.36V94.5015Z" fill="#AAB5C1"/>
<path id="Vector_114" d="M189.36 85.9099H180.752V94.5015H189.36V85.9099Z" fill="white"/>
<path id="Vector_115" d="M189.36 77.3154H180.752V85.9069H189.36V77.3154Z" fill="#AAB5C1"/>
<path id="Vector_116" d="M189.36 68.7238H180.752V77.3154H189.36V68.7238Z" fill="white"/>
<path id="Vector_117" d="M189.36 60.1351H180.752V68.7238H189.36V60.1351Z" fill="white"/>
<path id="Vector_118" d="M189.36 51.5436H180.752V60.1352H189.36V51.5436Z" fill="white"/>
<path id="Vector_119" d="M189.36 42.952H180.752V51.5436H189.36V42.952Z" fill="#AAB5C1"/>
<path id="Vector_120" d="M189.36 34.3604H180.752V42.952H189.36V34.3604Z" fill="white"/>
<path id="Vector_121" d="M189.36 25.7718H180.752V34.3604H189.36V25.7718Z" fill="#AAB5C1"/>
<path id="Vector_122" d="M189.36 17.1802H180.752V25.7718H189.36V17.1802Z" fill="white"/>
<path id="Vector_123" d="M189.36 8.58862H180.752V17.1802H189.36V8.58862Z" fill="white"/>
<path id="Vector_124" d="M189.36 0H180.752V8.58864H189.36V0Z" fill="#682E87"/>
<path id="Vector_125" d="M180.751 146.045H172.144V154.637H180.751V146.045Z" fill="#682E87"/>
<path id="Vector_126" d="M180.751 137.456H172.144V146.045H180.751V137.456Z" fill="#532C6D"/>
<path id="Vector_127" d="M180.751 128.865H172.144V137.456H180.751V128.865Z" fill="#898989"/>
<path id="Vector_128" d="M180.751 120.273H172.144V128.865H180.751V120.273Z" fill="white"/>
<path id="Vector_129" d="M180.751 111.685H172.144V120.273H180.751V111.685Z" fill="#AAB5C1"/>
<path id="Vector_130" d="M180.751 103.09H172.144V111.685H180.751V103.09Z" fill="white"/>
<path id="Vector_131" d="M180.751 94.5015H172.144V103.09H180.751V94.5015Z" fill="#AAB5C1"/>
<path id="Vector_132" d="M180.751 85.9099H172.144V94.5015H180.751V85.9099Z" fill="white"/>
<path id="Vector_133" d="M180.751 77.3154H172.144V85.9069H180.751V77.3154Z" fill="#AAB5C1"/>
<path id="Vector_134" d="M180.751 68.7238H172.144V77.3154H180.751V68.7238Z" fill="white"/>
<path id="Vector_135" d="M180.751 60.1351H172.144V68.7238H180.751V60.1351Z" fill="white"/>
<path id="Vector_136" d="M180.751 51.5436H172.144V60.1352H180.751V51.5436Z" fill="white"/>
<path id="Vector_137" d="M180.751 42.952H172.144V51.5436H180.751V42.952Z" fill="#AAB5C1"/>
<path id="Vector_138" d="M180.751 34.3604H172.144V42.952H180.751V34.3604Z" fill="white"/>
<path id="Vector_139" d="M180.751 25.7718H172.144V34.3604H180.751V25.7718Z" fill="#AAB5C1"/>
<path id="Vector_140" d="M180.751 17.1802H172.144V25.7718H180.751V17.1802Z" fill="white"/>
<path id="Vector_141" d="M180.751 8.58862H172.144V17.1802H180.751V8.58862Z" fill="white"/>
<path id="Vector_142" d="M180.751 0H172.144V8.58864H180.751V0Z" fill="#682E87"/>
<path id="Vector_143" d="M172.144 146.045H163.539V154.637H172.144V146.045Z" fill="#682E87"/>
<path id="Vector_144" d="M172.144 137.456H163.539V146.045H172.144V137.456Z" fill="#532C6D"/>
<path id="Vector_145" d="M172.144 128.865H163.539V137.456H172.144V128.865Z" fill="#898989"/>
<path id="Vector_146" d="M172.144 120.273H163.539V128.865H172.144V120.273Z" fill="white"/>
<path id="Vector_147" d="M172.144 111.685H163.539V120.273H172.144V111.685Z" fill="#AAB5C1"/>
<path id="Vector_148" d="M172.144 103.09H163.539V111.685H172.144V103.09Z" fill="white"/>
<path id="Vector_149" d="M172.144 94.5015H163.539V103.09H172.144V94.5015Z" fill="#AAB5C1"/>
<path id="Vector_150" d="M172.144 85.9099H163.539V94.5015H172.144V85.9099Z" fill="white"/>
<path id="Vector_151" d="M172.144 77.3154H163.539V85.9069H172.144V77.3154Z" fill="#AAB5C1"/>
<path id="Vector_152" d="M172.144 68.7238H163.539V77.3154H172.144V68.7238Z" fill="white"/>
<path id="Vector_153" d="M172.144 60.1351H163.539V68.7238H172.144V60.1351Z" fill="#AAB5C1"/>
<path id="Vector_154" d="M172.144 51.5436H163.539V60.1352H172.144V51.5436Z" fill="white"/>
<path id="Vector_155" d="M172.144 42.952H163.539V51.5436H172.144V42.952Z" fill="#AAB5C1"/>
<path id="Vector_156" d="M172.144 34.3604H163.539V42.952H172.144V34.3604Z" fill="white"/>
<path id="Vector_157" d="M172.144 25.7718H163.539V34.3604H172.144V25.7718Z" fill="#AAB5C1"/>
<path id="Vector_158" d="M172.144 17.1802H163.539V25.7718H172.144V17.1802Z" fill="white"/>
<path id="Vector_159" d="M172.144 8.58862H163.539V17.1802H172.144V8.58862Z" fill="white"/>
<path id="Vector_160" d="M172.144 0H163.539V8.58864H172.144V0Z" fill="#682E87"/>
<path id="Vector_161" d="M163.538 146.045H154.931V154.637H163.538V146.045Z" fill="#682E87"/>
<path id="Vector_162" d="M163.538 137.456H154.931V146.045H163.538V137.456Z" fill="#532C6D"/>
<path id="Vector_163" d="M163.538 128.865H154.931V137.456H163.538V128.865Z" fill="#898989"/>
<path id="Vector_164" d="M163.538 120.273H154.931V128.865H163.538V120.273Z" fill="white"/>
<path id="Vector_165" d="M163.538 111.685H154.931V120.273H163.538V111.685Z" fill="#AAB5C1"/>
<path id="Vector_166" d="M163.538 103.09H154.931V111.685H163.538V103.09Z" fill="white"/>
<path id="Vector_167" d="M163.538 94.5015H154.931V103.09H163.538V94.5015Z" fill="#AAB5C1"/>
<path id="Vector_168" d="M163.538 85.9099H154.931V94.5015H163.538V85.9099Z" fill="white"/>
<path id="Vector_169" d="M163.538 77.3154H154.931V85.9069H163.538V77.3154Z" fill="#AAB5C1"/>
<path id="Vector_170" d="M163.538 68.7238H154.931V77.3154H163.538V68.7238Z" fill="white"/>
<path id="Vector_171" d="M163.538 60.1351H154.931V68.7238H163.538V60.1351Z" fill="#AAB5C1"/>
<path id="Vector_172" d="M163.538 51.5436H154.931V60.1352H163.538V51.5436Z" fill="white"/>
<path id="Vector_173" d="M163.538 42.952H154.931V51.5436H163.538V42.952Z" fill="#AAB5C1"/>
<path id="Vector_174" d="M163.538 34.3604H154.931V42.952H163.538V34.3604Z" fill="white"/>
<path id="Vector_175" d="M163.538 25.7718H154.931V34.3604H163.538V25.7718Z" fill="#AAB5C1"/>
<path id="Vector_176" d="M163.538 17.1802H154.931V25.7718H163.538V17.1802Z" fill="white"/>
<path id="Vector_177" d="M163.538 8.58862H154.931V17.1802H163.538V8.58862Z" fill="white"/>
<path id="Vector_178" d="M163.538 0H154.931V8.58864H163.538V0Z" fill="#682E87"/>
<path id="Vector_179" d="M154.931 146.045H146.323V154.637H154.931V146.045Z" fill="#682E87"/>
<path id="Vector_180" d="M154.931 137.456H146.323V146.045H154.931V137.456Z" fill="#532C6D"/>
<path id="Vector_181" d="M154.931 128.865H146.323V137.456H154.931V128.865Z" fill="#898989"/>
<path id="Vector_182" d="M154.931 120.273H146.323V128.865H154.931V120.273Z" fill="white"/>
<path id="Vector_183" d="M154.931 111.685H146.323V120.273H154.931V111.685Z" fill="#AAB5C1"/>
<path id="Vector_184" d="M154.931 103.09H146.323V111.685H154.931V103.09Z" fill="white"/>
<path id="Vector_185" d="M154.931 94.5015H146.323V103.09H154.931V94.5015Z" fill="#AAB5C1"/>
<path id="Vector_186" d="M154.931 85.9099H146.323V94.5015H154.931V85.9099Z" fill="white"/>
<path id="Vector_187" d="M154.931 77.3154H146.323V85.9069H154.931V77.3154Z" fill="#AAB5C1"/>
<path id="Vector_188" d="M154.931 68.7238H146.323V77.3154H154.931V68.7238Z" fill="white"/>
<path id="Vector_189" d="M154.931 60.1351H146.323V68.7238H154.931V60.1351Z" fill="#AAB5C1"/>
<path id="Vector_190" d="M154.931 51.5436H146.323V60.1352H154.931V51.5436Z" fill="white"/>
<path id="Vector_191" d="M154.931 42.952H146.323V51.5436H154.931V42.952Z" fill="#AAB5C1"/>
<path id="Vector_192" d="M154.931 34.3604H146.323V42.952H154.931V34.3604Z" fill="white"/>
<path id="Vector_193" d="M154.931 25.7718H146.323V34.3604H154.931V25.7718Z" fill="#AAB5C1"/>
<path id="Vector_194" d="M154.931 17.1802H146.323V25.7718H154.931V17.1802Z" fill="white"/>
<path id="Vector_195" d="M154.931 8.58862H146.323V17.1802H154.931V8.58862Z" fill="#CCCCCC"/>
<path id="Vector_196" d="M154.931 0H146.323V8.58864H154.931V0Z" fill="#682E87"/>
<path id="Vector_197" d="M146.324 146.045H137.719V154.637H146.324V146.045Z" fill="#682E87"/>
<path id="Vector_198" d="M146.324 137.456H137.719V146.045H146.324V137.456Z" fill="#532C6D"/>
<path id="Vector_199" d="M146.324 128.865H137.719V137.456H146.324V128.865Z" fill="#898989"/>
<path id="Vector_200" d="M146.324 120.273H137.719V128.865H146.324V120.273Z" fill="#CCCCCC"/>
<path id="Vector_201" d="M146.324 111.685H137.719V120.273H146.324V111.685Z" fill="white"/>
<path id="Vector_202" d="M146.324 103.09H137.719V111.685H146.324V103.09Z" fill="white"/>
<path id="Vector_203" d="M146.324 94.5015H137.719V103.09H146.324V94.5015Z" fill="white"/>
<path id="Vector_204" d="M146.324 85.9099H137.719V94.5015H146.324V85.9099Z" fill="white"/>
<path id="Vector_205" d="M146.324 77.3154H137.719V85.9069H146.324V77.3154Z" fill="white"/>
<path id="Vector_206" d="M146.324 68.7238H137.719V77.3154H146.324V68.7238Z" fill="white"/>
<path id="Vector_207" d="M146.324 60.1351H137.719V68.7238H146.324V60.1351Z" fill="white"/>
<path id="Vector_208" d="M146.324 51.5436H137.719V60.1352H146.324V51.5436Z" fill="white"/>
<path id="Vector_209" d="M146.324 42.952H137.719V51.5436H146.324V42.952Z" fill="white"/>
<path id="Vector_210" d="M146.324 34.3604H137.719V42.952H146.324V34.3604Z" fill="white"/>
<path id="Vector_211" d="M146.324 25.7718H137.719V34.3604H146.324V25.7718Z" fill="white"/>
<path id="Vector_212" d="M146.324 17.1802H137.719V25.7718H146.324V17.1802Z" fill="#CCCCCC"/>
<path id="Vector_213" d="M146.324 8.58862H137.719V17.1802H146.324V8.58862Z" fill="#CCCCCC"/>
<path id="Vector_214" d="M146.324 0H137.719V8.58864H146.324V0Z" fill="#682E87"/>
<path id="Vector_215" d="M137.718 137.456H129.107V146.045H137.718V137.456Z" fill="#532C6D"/>
<path id="Vector_216" d="M137.718 128.865H129.107V137.456H137.718V128.865Z" fill="#898989"/>
<path id="Vector_217" d="M137.718 120.273H129.107V128.865H137.718V120.273Z" fill="#CCCCCC"/>
<path id="Vector_218" d="M137.718 111.685H129.107V120.273H137.718V111.685Z" fill="#CCCCCC"/>
<path id="Vector_219" d="M137.718 103.09H129.107V111.685H137.718V103.09Z" fill="#CCCCCC"/>
<path id="Vector_220" d="M137.718 94.5015H129.107V103.09H137.718V94.5015Z" fill="#CCCCCC"/>
<path id="Vector_221" d="M137.718 85.9099H129.107V94.5015H137.718V85.9099Z" fill="#CCCCCC"/>
<path id="Vector_222" d="M137.718 77.3154H129.107V85.9069H137.718V77.3154Z" fill="#CCCCCC"/>
<path id="Vector_223" d="M137.718 68.7238H129.107V77.3154H137.718V68.7238Z" fill="#CCCCCC"/>
<path id="Vector_224" d="M137.718 60.1351H129.107V68.7238H137.718V60.1351Z" fill="#CCCCCC"/>
<path id="Vector_225" d="M137.718 51.5436H129.107V60.1352H137.718V51.5436Z" fill="#CCCCCC"/>
<path id="Vector_226" d="M137.718 42.952H129.107V51.5436H137.718V42.952Z" fill="#CCCCCC"/>
<path id="Vector_227" d="M137.718 34.3604H129.107V42.952H137.718V34.3604Z" fill="#CCCCCC"/>
<path id="Vector_228" d="M137.718 25.7718H129.107V34.3604H137.718V25.7718Z" fill="#CCCCCC"/>
<path id="Vector_229" d="M137.718 17.1802H129.107V25.7718H137.718V17.1802Z" fill="#898989"/>
<path id="Vector_230" d="M137.718 8.58862H129.107V17.1802H137.718V8.58862Z" fill="#682E87"/>
<path id="Vector_231" d="M129.108 128.865H120.503V137.456H129.108V128.865Z" fill="#532C6D"/>
<path id="Vector_232" d="M129.108 120.273H120.503V128.865H129.108V120.273Z" fill="#898989"/>
<path id="Vector_233" d="M129.108 111.685H120.503V120.273H129.108V111.685Z" fill="#A0A0A0"/>
<path id="Vector_234" d="M129.108 103.09H120.503V111.685H129.108V103.09Z" fill="#A0A0A0"/>
<path id="Vector_235" d="M129.108 94.5015H120.503V103.09H129.108V94.5015Z" fill="#A0A0A0"/>
<path id="Vector_236" d="M129.108 85.9099H120.503V94.5015H129.108V85.9099Z" fill="#A0A0A0"/>
<path id="Vector_237" d="M129.108 77.3154H120.503V85.9069H129.108V77.3154Z" fill="#A0A0A0"/>
<path id="Vector_238" d="M129.108 68.7238H120.503V77.3154H129.108V68.7238Z" fill="#A0A0A0"/>
<path id="Vector_239" d="M129.108 60.1351H120.503V68.7238H129.108V60.1351Z" fill="#A0A0A0"/>
<path id="Vector_240" d="M129.108 51.5436H120.503V60.1352H129.108V51.5436Z" fill="#A0A0A0"/>
<path id="Vector_241" d="M129.108 42.952H120.503V51.5436H129.108V42.952Z" fill="#A0A0A0"/>
<path id="Vector_242" d="M129.108 34.3604H120.503V42.952H129.108V34.3604Z" fill="#A0A0A0"/>
<path id="Vector_243" d="M129.108 25.7718H120.503V34.3604H129.108V25.7718Z" fill="#898989"/>
<path id="Vector_244" d="M129.108 17.1802H120.503V25.7718H129.108V17.1802Z" fill="#682E87"/>
<path id="Vector_245" d="M120.503 137.456H111.896V146.045H120.503V137.456Z" fill="#532C6D"/>
<path id="Vector_246" d="M120.503 128.865H111.896V137.456H120.503V128.865Z" fill="#898989"/>
<path id="Vector_247" d="M120.503 120.273H111.896V128.865H120.503V120.273Z" fill="#CCCCCC"/>
<path id="Vector_248" d="M120.503 111.685H111.896V120.273H120.503V111.685Z" fill="#CCCCCC"/>
<path id="Vector_249" d="M120.503 103.09H111.896V111.685H120.503V103.09Z" fill="#CCCCCC"/>
<path id="Vector_250" d="M120.503 94.5015H111.896V103.09H120.503V94.5015Z" fill="#CCCCCC"/>
<path id="Vector_251" d="M120.503 85.9099H111.896V94.5015H120.503V85.9099Z" fill="#CCCCCC"/>
<path id="Vector_252" d="M120.503 77.3154H111.896V85.9069H120.503V77.3154Z" fill="#CCCCCC"/>
<path id="Vector_253" d="M120.503 68.7238H111.896V77.3154H120.503V68.7238Z" fill="#CCCCCC"/>
<path id="Vector_254" d="M120.503 60.1351H111.896V68.7238H120.503V60.1351Z" fill="#CCCCCC"/>
<path id="Vector_255" d="M120.503 51.5436H111.896V60.1352H120.503V51.5436Z" fill="#CCCCCC"/>
<path id="Vector_256" d="M120.503 42.952H111.896V51.5436H120.503V42.952Z" fill="#CCCCCC"/>
<path id="Vector_257" d="M120.503 34.3604H111.896V42.952H120.503V34.3604Z" fill="#CCCCCC"/>
<path id="Vector_258" d="M120.503 25.7718H111.896V34.3604H120.503V25.7718Z" fill="#CCCCCC"/>
<path id="Vector_259" d="M120.503 17.1802H111.896V25.7718H120.503V17.1802Z" fill="#898989"/>
<path id="Vector_260" d="M120.503 8.58862H111.896V17.1802H120.503V8.58862Z" fill="#682E87"/>
<path id="Vector_261" d="M111.892 146.045H103.287V154.637H111.892V146.045Z" fill="#682E87"/>
<path id="Vector_262" d="M111.892 137.456H103.287V146.045H111.892V137.456Z" fill="#532C6D"/>
<path id="Vector_263" d="M111.892 128.865H103.287V137.456H111.892V128.865Z" fill="#898989"/>
<path id="Vector_264" d="M111.892 120.273H103.287V128.865H111.892V120.273Z" fill="#CCCCCC"/>
<path id="Vector_265" d="M111.892 111.685H103.287V120.273H111.892V111.685Z" fill="white"/>
<path id="Vector_266" d="M111.892 103.09H103.287V111.685H111.892V103.09Z" fill="white"/>
<path id="Vector_267" d="M111.892 94.5015H103.287V103.09H111.892V94.5015Z" fill="white"/>
<path id="Vector_268" d="M111.892 85.9099H103.287V94.5015H111.892V85.9099Z" fill="white"/>
<path id="Vector_269" d="M111.892 77.3154H103.287V85.9069H111.892V77.3154Z" fill="white"/>
<path id="Vector_270" d="M111.892 68.7238H103.287V77.3154H111.892V68.7238Z" fill="white"/>
<path id="Vector_271" d="M111.892 60.1351H103.287V68.7238H111.892V60.1351Z" fill="white"/>
<path id="Vector_272" d="M111.892 51.5436H103.287V60.1352H111.892V51.5436Z" fill="white"/>
<path id="Vector_273" d="M111.892 42.952H103.287V51.5436H111.892V42.952Z" fill="white"/>
<path id="Vector_274" d="M111.892 34.3604H103.287V42.952H111.892V34.3604Z" fill="white"/>
<path id="Vector_275" d="M111.892 25.7718H103.287V34.3604H111.892V25.7718Z" fill="white"/>
<path id="Vector_276" d="M111.892 17.1802H103.287V25.7718H111.892V17.1802Z" fill="#CCCCCC"/>
<path id="Vector_277" d="M111.892 8.58862H103.287V17.1802H111.892V8.58862Z" fill="#CCCCCC"/>
<path id="Vector_278" d="M111.892 0H103.287V8.58864H111.892V0Z" fill="#682E87"/>
<path id="Vector_279" d="M103.29 146.045H94.6797V154.637H103.29V146.045Z" fill="#682E87"/>
<path id="Vector_280" d="M103.29 137.456H94.6797V146.045H103.29V137.456Z" fill="#532C6D"/>
<path id="Vector_281" d="M103.29 128.865H94.6797V137.456H103.29V128.865Z" fill="#898989"/>
<path id="Vector_282" d="M103.29 120.273H94.6797V128.865H103.29V120.273Z" fill="white"/>
<path id="Vector_283" d="M103.29 111.685H94.6797V120.273H103.29V111.685Z" fill="white"/>
<path id="Vector_284" d="M103.29 103.09H94.6797V111.685H103.29V103.09Z" fill="white"/>
<path id="Vector_285" d="M103.29 94.5015H94.6797V103.09H103.29V94.5015Z" fill="#AAB5C1"/>
<path id="Vector_286" d="M103.29 85.9099H94.6797V94.5015H103.29V85.9099Z" fill="white"/>
<path id="Vector_287" d="M103.29 77.3154H94.6797V85.9069H103.29V77.3154Z" fill="white"/>
<path id="Vector_288" d="M103.29 68.7238H94.6797V77.3154H103.29V68.7238Z" fill="white"/>
<path id="Vector_289" d="M103.29 60.1351H94.6797V68.7238H103.29V60.1351Z" fill="white"/>
<path id="Vector_290" d="M103.29 51.5436H94.6797V60.1352H103.29V51.5436Z" fill="white"/>
<path id="Vector_291" d="M103.29 42.952H94.6797V51.5436H103.29V42.952Z" fill="#AAB5C1"/>
<path id="Vector_292" d="M103.287 34.3604V42.952H94.6797V34.3633L103.287 34.3604Z" fill="white"/>
<path id="Vector_293" d="M103.287 25.7718V34.3604L94.6797 34.3634V25.7718H103.287Z" fill="#AAB5C1"/>
<path id="Vector_294" d="M103.29 17.1802H94.6797V25.7718H103.29V17.1802Z" fill="white"/>
<path id="Vector_295" d="M103.29 8.58862H94.6797V17.1802H103.29V8.58862Z" fill="#CCCCCC"/>
<path id="Vector_296" d="M103.29 0H94.6797V8.58864H103.29V0Z" fill="#682E87"/>
<path id="Vector_297" d="M94.6771 146.045H86.0723V154.637H94.6771V146.045Z" fill="#682E87"/>
<path id="Vector_298" d="M94.6771 137.456H86.0723V146.045H94.6771V137.456Z" fill="#532C6D"/>
<path id="Vector_299" d="M94.6771 128.865H86.0723V137.456H94.6771V128.865Z" fill="#898989"/>
<path id="Vector_300" d="M94.6771 120.273H86.0723V128.865H94.6771V120.273Z" fill="white"/>
<path id="Vector_301" d="M94.6771 111.685H86.0723V120.273H94.6771V111.685Z" fill="white"/>
<path id="Vector_302" d="M94.6771 103.09H86.0723V111.685H94.6771V103.09Z" fill="white"/>
<path id="Vector_303" d="M94.6771 94.5015H86.0723V103.09H94.6771V94.5015Z" fill="#AAB5C1"/>
<path id="Vector_304" d="M94.6771 85.9099H86.0723V94.5015H94.6771V85.9099Z" fill="white"/>
<path id="Vector_305" d="M94.6771 77.3154H86.0723V85.9069H94.6771V77.3154Z" fill="white"/>
<path id="Vector_306" d="M94.6771 68.7238H86.0723V77.3154H94.6771V68.7238Z" fill="white"/>
<path id="Vector_307" d="M94.6771 60.1351H86.0723V68.7238H94.6771V60.1351Z" fill="white"/>
<path id="Vector_308" d="M94.6771 51.5436H86.0723V60.1352H94.6771V51.5436Z" fill="white"/>
<path id="Vector_309" d="M94.6771 42.952H86.0723V51.5436H94.6771V42.952Z" fill="#AAB5C1"/>
<path id="Vector_310" d="M94.6771 34.3633H86.0723V42.952H94.6771V34.3633Z" fill="white"/>
<path id="Vector_311" d="M94.6771 25.7718H86.0723V34.3634H94.6771V25.7718Z" fill="#AAB5C1"/>
<path id="Vector_312" d="M94.6771 17.1802H86.0723V25.7718H94.6771V17.1802Z" fill="white"/>
<path id="Vector_313" d="M94.6771 8.58862H86.0723V17.1802H94.6771V8.58862Z" fill="white"/>
<path id="Vector_314" d="M94.6771 0H86.0723V8.58864H94.6771V0Z" fill="#682E87"/>
<path id="Vector_315" d="M86.0716 146.045H77.4639V154.637H86.0716V146.045Z" fill="#682E87"/>
<path id="Vector_316" d="M86.0716 137.456H77.4639V146.045H86.0716V137.456Z" fill="#532C6D"/>
<path id="Vector_317" d="M86.0716 128.865H77.4639V137.456H86.0716V128.865Z" fill="#898989"/>
<path id="Vector_318" d="M86.0716 120.273H77.4639V128.865H86.0716V120.273Z" fill="white"/>
<path id="Vector_319" d="M86.0716 111.685H77.4639V120.273H86.0716V111.685Z" fill="#AAB5C1"/>
<path id="Vector_320" d="M86.0716 103.09H77.4639V111.685H86.0716V103.09Z" fill="white"/>
<path id="Vector_321" d="M86.0716 94.5015H77.4639V103.09H86.0716V94.5015Z" fill="#AAB5C1"/>
<path id="Vector_322" d="M86.0716 85.9099H77.4639V94.5015H86.0716V85.9099Z" fill="white"/>
<path id="Vector_323" d="M86.0716 77.3154H77.4639V85.9069H86.0716V77.3154Z" fill="white"/>
<path id="Vector_324" d="M86.0716 68.7238H77.4639V77.3154H86.0716V68.7238Z" fill="white"/>
<path id="Vector_325" d="M86.0716 60.1351H77.4639V68.7238H86.0716V60.1351Z" fill="white"/>
<path id="Vector_326" d="M86.0716 51.5436H77.4639V60.1352H86.0716V51.5436Z" fill="white"/>
<path id="Vector_327" d="M86.0716 42.952H77.4639V51.5436H86.0716V42.952Z" fill="#AAB5C1"/>
<path id="Vector_328" d="M86.0716 34.3633H77.4639V42.952H86.0716V34.3633Z" fill="white"/>
<path id="Vector_329" d="M86.0716 25.7718H77.4639V34.3634H86.0716V25.7718Z" fill="#AAB5C1"/>
<path id="Vector_330" d="M86.0716 17.1802H77.4639V25.7718H86.0716V17.1802Z" fill="white"/>
<path id="Vector_331" d="M86.0716 8.58862H77.4639V17.1802H86.0716V8.58862Z" fill="white"/>
<path id="Vector_332" d="M86.0716 0H77.4639V8.58864H86.0716V0Z" fill="#682E87"/>
<path id="Vector_333" d="M77.4642 146.045H68.8564V154.637H77.4642V146.045Z" fill="#682E87"/>
<path id="Vector_334" d="M77.4642 137.456H68.8564V146.045H77.4642V137.456Z" fill="#532C6D"/>
<path id="Vector_335" d="M77.4642 128.865H68.8564V137.456H77.4642V128.865Z" fill="#898989"/>
<path id="Vector_336" d="M77.4642 120.273H68.8564V128.865H77.4642V120.273Z" fill="white"/>
<path id="Vector_337" d="M77.4642 111.685H68.8564V120.273H77.4642V111.685Z" fill="#AAB5C1"/>
<path id="Vector_338" d="M77.4642 103.09H68.8564V111.685H77.4642V103.09Z" fill="white"/>
<path id="Vector_339" d="M77.4642 94.5015H68.8564V103.09H77.4642V94.5015Z" fill="#AAB5C1"/>
<path id="Vector_340" d="M77.4642 85.9099H68.8564V94.5015H77.4642V85.9099Z" fill="white"/>
<path id="Vector_341" d="M77.4642 77.3154H68.8564V85.9069H77.4642V77.3154Z" fill="white"/>
<path id="Vector_342" d="M77.4642 68.7238H68.8564V77.3154H77.4642V68.7238Z" fill="white"/>
<path id="Vector_343" d="M77.4642 60.1351H68.8564V68.7238H77.4642V60.1351Z" fill="white"/>
<path id="Vector_344" d="M77.4642 51.5436H68.8564V60.1352H77.4642V51.5436Z" fill="white"/>
<path id="Vector_345" d="M77.4642 42.952H68.8564V51.5436H77.4642V42.952Z" fill="#AAB5C1"/>
<path id="Vector_346" d="M77.4642 34.3633H68.8564V42.952H77.4642V34.3633Z" fill="white"/>
<path id="Vector_347" d="M77.4642 25.7718H68.8564V34.3634H77.4642V25.7718Z" fill="#AAB5C1"/>
<path id="Vector_348" d="M77.4642 17.1802H68.8564V25.7718H77.4642V17.1802Z" fill="white"/>
<path id="Vector_349" d="M77.4642 8.58862H68.8564V17.1802H77.4642V8.58862Z" fill="white"/>
<path id="Vector_350" d="M77.4642 0H68.8564V8.58864H77.4642V0Z" fill="#682E87"/>
<path id="Vector_351" d="M68.8558 154.637V163.228H60.251L60.248 154.637H68.8558Z" fill="#BC1E1E"/>
<path id="Vector_352" d="M68.8558 146.045H60.248V154.637H68.8558V146.045Z" fill="#BC1E1E"/>
<path id="Vector_353" d="M68.8558 137.456H60.248V146.045H68.8558V137.456Z" fill="#BC1E1E"/>
<path id="Vector_354" d="M68.8558 128.865H60.248V137.456H68.8558V128.865Z" fill="#BC1E1E"/>
<path id="Vector_355" d="M68.8558 120.273H60.248V128.865H68.8558V120.273Z" fill="white"/>
<path id="Vector_356" d="M68.8558 111.685H60.248V120.273H68.8558V111.685Z" fill="#AAB5C1"/>
<path id="Vector_357" d="M68.8558 103.09H60.248V111.685H68.8558V103.09Z" fill="white"/>
<path id="Vector_358" d="M68.8558 94.5015H60.248V103.09H68.8558V94.5015Z" fill="#AAB5C1"/>
<path id="Vector_359" d="M68.8558 85.9099H60.248V94.5015H68.8558V85.9099Z" fill="white"/>
<path id="Vector_360" d="M68.8558 77.3154H60.248V85.9069H68.8558V77.3154Z" fill="#AAB5C1"/>
<path id="Vector_361" d="M68.8558 68.7238H60.248V77.3154H68.8558V68.7238Z" fill="white"/>
<path id="Vector_362" d="M68.8558 60.1351H60.248V68.7238H68.8558V60.1351Z" fill="white"/>
<path id="Vector_363" d="M68.8558 51.5436H60.248V60.1352H68.8558V51.5436Z" fill="white"/>
<path id="Vector_364" d="M68.8558 42.952H60.248V51.5436H68.8558V42.952Z" fill="#AAB5C1"/>
<path id="Vector_365" d="M68.8558 34.3633H60.248V42.952H68.8558V34.3633Z" fill="white"/>
<path id="Vector_366" d="M68.8558 25.7718H60.248V34.3634H68.8558V25.7718Z" fill="#AAB5C1"/>
<path id="Vector_367" d="M68.8558 17.1802H60.248V25.7718H68.8558V17.1802Z" fill="white"/>
<path id="Vector_368" d="M68.8558 8.58862H60.248V17.1802H68.8558V8.58862Z" fill="white"/>
<path id="Vector_369" d="M68.8558 0H60.248V8.58864H68.8558V0Z" fill="#682E87"/>
<path id="Vector_370" d="M60.2513 171.82H51.6436V180.408H60.2513V171.82Z" fill="#BC1E1E"/>
<path id="Vector_371" d="M60.2513 163.228H51.6436V171.82H60.2513V163.228Z" fill="#BC1E1E"/>
<path id="Vector_372" d="M60.2484 154.637L60.2513 163.228H51.6436V154.637H60.2484Z" fill="#EF3030"/>
<path id="Vector_373" d="M60.2484 146.045H51.6436V154.637H60.2484V146.045Z" fill="#EF3030"/>
<path id="Vector_374" d="M60.2484 137.456H51.6436V146.045H60.2484V137.456Z" fill="#EF3030"/>
<path id="Vector_375" d="M60.2484 128.865H51.6436V137.456H60.2484V128.865Z" fill="#EF3030"/>
<path id="Vector_376" d="M60.2484 120.273H51.6436V128.865H60.2484V120.273Z" fill="white"/>
<path id="Vector_377" d="M60.2484 111.685H51.6436V120.273H60.2484V111.685Z" fill="#AAB5C1"/>
<path id="Vector_378" d="M60.2484 103.09H51.6436V111.685H60.2484V103.09Z" fill="white"/>
<path id="Vector_379" d="M60.2484 94.5015H51.6436V103.09H60.2484V94.5015Z" fill="#AAB5C1"/>
<path id="Vector_380" d="M60.2484 85.9099H51.6436V94.5015H60.2484V85.9099Z" fill="white"/>
<path id="Vector_381" d="M60.2484 77.3154H51.6436V85.9069H60.2484V77.3154Z" fill="#AAB5C1"/>
<path id="Vector_382" d="M60.2484 68.7238H51.6436V77.3154H60.2484V68.7238Z" fill="white"/>
<path id="Vector_383" d="M60.2484 60.1351H51.6436V68.7238H60.2484V60.1351Z" fill="white"/>
<path id="Vector_384" d="M60.2484 51.5436H51.6436V60.1352H60.2484V51.5436Z" fill="white"/>
<path id="Vector_385" d="M60.2484 42.952H51.6436V51.5436H60.2484V42.952Z" fill="#AAB5C1"/>
<path id="Vector_386" d="M60.2484 34.3633H51.6436V42.952H60.2484V34.3633Z" fill="white"/>
<path id="Vector_387" d="M60.2484 25.7718H51.6436V34.3634H60.2484V25.7718Z" fill="#AAB5C1"/>
<path id="Vector_388" d="M60.2484 17.1802H51.6436V25.7718H60.2484V17.1802Z" fill="white"/>
<path id="Vector_389" d="M60.2484 8.58862H51.6436V17.1802H60.2484V8.58862Z" fill="white"/>
<path id="Vector_390" d="M60.2484 0H51.6436V8.58864H60.2484V0Z" fill="#682E87"/>
<path id="Vector_391" d="M51.6439 180.408H43.0361V189H51.6439V180.408Z" fill="#BC1E1E"/>
<path id="Vector_392" d="M51.6439 171.82H43.0361V180.408H51.6439V171.82Z" fill="#EF3030"/>
<path id="Vector_393" d="M51.6439 163.228H43.0361V171.82H51.6439V163.228Z" fill="#EF3030"/>
<path id="Vector_394" d="M51.6439 154.637H43.0361V163.228H51.6439V154.637Z" fill="#BC1E1E"/>
<path id="Vector_395" d="M51.6439 146.045H43.0361V154.637H51.6439V146.045Z" fill="#BC1E1E"/>
<path id="Vector_396" d="M51.6439 137.456H43.0361V146.045H51.6439V137.456Z" fill="#BC1E1E"/>
<path id="Vector_397" d="M51.6439 128.865H43.0361V137.456H51.6439V128.865Z" fill="#BC1E1E"/>
<path id="Vector_398" d="M51.6439 120.273H43.0361V128.865H51.6439V120.273Z" fill="white"/>
<path id="Vector_399" d="M51.6439 111.685H43.0361V120.273H51.6439V111.685Z" fill="#AAB5C1"/>
<path id="Vector_400" d="M51.6439 103.09H43.0361V111.685H51.6439V103.09Z" fill="white"/>
<path id="Vector_401" d="M51.6439 94.5015H43.0361V103.09H51.6439V94.5015Z" fill="#AAB5C1"/>
<path id="Vector_402" d="M51.6439 85.9099H43.0361V94.5015H51.6439V85.9099Z" fill="white"/>
<path id="Vector_403" d="M51.6439 77.3154H43.0361V85.9069H51.6439V77.3154Z" fill="#AAB5C1"/>
<path id="Vector_404" d="M51.6439 68.7238H43.0361V77.3154H51.6439V68.7238Z" fill="white"/>
<path id="Vector_405" d="M51.6439 60.1351H43.0361V68.7238H51.6439V60.1351Z" fill="#AAB5C1"/>
<path id="Vector_406" d="M51.6439 51.5436H43.0361V60.1352H51.6439V51.5436Z" fill="white"/>
<path id="Vector_407" d="M51.6439 42.952H43.0361V51.5436H51.6439V42.952Z" fill="#AAB5C1"/>
<path id="Vector_408" d="M51.6439 34.3633H43.0361V42.952H51.6439V34.3633Z" fill="white"/>
<path id="Vector_409" d="M51.6439 25.7718H43.0361V34.3634H51.6439V25.7718Z" fill="#AAB5C1"/>
<path id="Vector_410" d="M51.6439 17.1802H43.0361V25.7718H51.6439V17.1802Z" fill="white"/>
<path id="Vector_411" d="M51.6439 8.58862H43.0361V17.1802H51.6439V8.58862Z" fill="white"/>
<path id="Vector_412" d="M51.6439 0H43.0361V8.58864H51.6439V0Z" fill="#682E87"/>
<path id="Vector_413" d="M43.0355 171.82H34.4277V180.408H43.0355V171.82Z" fill="#BC1E1E"/>
<path id="Vector_414" d="M43.0355 163.228H34.4277V171.82H43.0355V163.228Z" fill="#BC1E1E"/>
<path id="Vector_415" d="M43.0355 146.045H34.4277V154.637H43.0355V146.045Z" fill="#682E87"/>
<path id="Vector_416" d="M43.0355 137.456H34.4277V146.045H43.0355V137.456Z" fill="#532C6D"/>
<path id="Vector_417" d="M43.0355 128.865H34.4277V137.456H43.0355V128.865Z" fill="#898989"/>
<path id="Vector_418" d="M43.0355 120.273H34.4277V128.865H43.0355V120.273Z" fill="white"/>
<path id="Vector_419" d="M43.0355 111.685H34.4277V120.273H43.0355V111.685Z" fill="#AAB5C1"/>
<path id="Vector_420" d="M43.0355 103.09H34.4277V111.685H43.0355V103.09Z" fill="white"/>
<path id="Vector_421" d="M43.0355 94.5015H34.4277V103.09H43.0355V94.5015Z" fill="#AAB5C1"/>
<path id="Vector_422" d="M43.0355 85.9099H34.4277V94.5015H43.0355V85.9099Z" fill="white"/>
<path id="Vector_423" d="M43.0355 77.3154H34.4277V85.9069H43.0355V77.3154Z" fill="#AAB5C1"/>
<path id="Vector_424" d="M43.0355 68.7238H34.4277V77.3154H43.0355V68.7238Z" fill="white"/>
<path id="Vector_425" d="M43.0355 60.1351H34.4277V68.7238H43.0355V60.1351Z" fill="#AAB5C1"/>
<path id="Vector_426" d="M43.0355 51.5436H34.4277V60.1352H43.0355V51.5436Z" fill="white"/>
<path id="Vector_427" d="M43.0355 42.952H34.4277V51.5436H43.0355V42.952Z" fill="#AAB5C1"/>
<path id="Vector_428" d="M43.0355 34.3633H34.4277V42.952H43.0355V34.3633Z" fill="white"/>
<path id="Vector_429" d="M43.0355 25.7718H34.4277V34.3634H43.0355V25.7718Z" fill="#AAB5C1"/>
<path id="Vector_430" d="M43.0355 17.1802H34.4277V25.7718H43.0355V17.1802Z" fill="white"/>
<path id="Vector_431" d="M43.0355 8.58862H34.4277V17.1802H43.0355V8.58862Z" fill="white"/>
<path id="Vector_432" d="M43.0355 0H34.4277V8.58864H43.0355V0Z" fill="#682E87"/>
<path id="Vector_433" d="M34.4281 146.045H25.8232V154.637H34.4281V146.045Z" fill="#682E87"/>
<path id="Vector_434" d="M34.4281 137.456H25.8232V146.045H34.4281V137.456Z" fill="#532C6D"/>
<path id="Vector_435" d="M34.4281 128.865H25.8232V137.456H34.4281V128.865Z" fill="#898989"/>
<path id="Vector_436" d="M34.4281 120.273H25.8232V128.865H34.4281V120.273Z" fill="white"/>
<path id="Vector_437" d="M34.4281 111.685H25.8232V120.273H34.4281V111.685Z" fill="white"/>
<path id="Vector_438" d="M34.4281 103.09H25.8232V111.685H34.4281V103.09Z" fill="white"/>
<path id="Vector_439" d="M34.4281 94.5015H25.8232V103.09H34.4281V94.5015Z" fill="white"/>
<path id="Vector_440" d="M34.4281 85.9099H25.8232V94.5015H34.4281V85.9099Z" fill="white"/>
<path id="Vector_441" d="M34.4281 77.3154H25.8232V85.9069H34.4281V77.3154Z" fill="white"/>
<path id="Vector_442" d="M34.4281 68.7238H25.8232V77.3154H34.4281V68.7238Z" fill="white"/>
<path id="Vector_443" d="M34.4281 60.1351H25.8232V68.7238H34.4281V60.1351Z" fill="white"/>
<path id="Vector_444" d="M34.4281 51.5436H25.8232V60.1352H34.4281V51.5436Z" fill="white"/>
<path id="Vector_445" d="M34.4281 42.952H25.8232V51.5436H34.4281V42.952Z" fill="white"/>
<path id="Vector_446" d="M34.4281 34.3633H25.8232V42.952H34.4281V34.3633Z" fill="white"/>
<path id="Vector_447" d="M34.4281 25.7718H25.8232V34.3634H34.4281V25.7718Z" fill="white"/>
<path id="Vector_448" d="M34.4281 17.1802H25.8232V25.7718H34.4281V17.1802Z" fill="white"/>
<path id="Vector_449" d="M34.4281 8.58862H25.8232V17.1802H34.4281V8.58862Z" fill="white"/>
<path id="Vector_450" d="M34.4281 0H25.8232V8.58864H34.4281V0Z" fill="#682E87"/>
<path id="Vector_451" d="M25.8236 146.045H17.2129V154.637H25.8236V146.045Z" fill="#682E87"/>
<path id="Vector_452" d="M25.8236 137.456H17.2129V146.045H25.8236V137.456Z" fill="#682E87"/>
<path id="Vector_453" d="M25.8236 128.865H17.2129V137.456H25.8236V128.865Z" fill="#532C6D"/>
<path id="Vector_454" d="M25.8236 120.273H17.2129V128.865H25.8236V120.273Z" fill="#898989"/>
<path id="Vector_455" d="M25.8236 111.685H17.2129V120.273H25.8236V111.685Z" fill="#898989"/>
<path id="Vector_456" d="M25.8236 103.09H17.2129V111.685H25.8236V103.09Z" fill="#898989"/>
<path id="Vector_457" d="M25.8236 94.5015H17.2129V103.09H25.8236V94.5015Z" fill="#898989"/>
<path id="Vector_458" d="M25.8236 85.9099H17.2129V94.5015H25.8236V85.9099Z" fill="#898989"/>
<path id="Vector_459" d="M25.8236 77.3154H17.2129V85.9069H25.8236V77.3154Z" fill="#898989"/>
<path id="Vector_460" d="M25.8236 68.7238H17.2129V77.3154H25.8236V68.7238Z" fill="#898989"/>
<path id="Vector_461" d="M25.8236 60.1351H17.2129V68.7238H25.8236V60.1351Z" fill="#898989"/>
<path id="Vector_462" d="M25.8236 51.5436H17.2129V60.1352H25.8236V51.5436Z" fill="#898989"/>
<path id="Vector_463" d="M25.8236 42.952H17.2129V51.5436H25.8236V42.952Z" fill="#898989"/>
<path id="Vector_464" d="M25.8236 34.3633H17.2129V42.952H25.8236V34.3633Z" fill="#898989"/>
<path id="Vector_465" d="M25.8236 25.7718H17.2129V34.3634H25.8236V25.7718Z" fill="#898989"/>
<path id="Vector_466" d="M25.8236 17.1802H17.2129V25.7718H25.8236V17.1802Z" fill="#898989"/>
<path id="Vector_467" d="M25.8236 8.58862H17.2129V17.1802H25.8236V8.58862Z" fill="#898989"/>
<path id="Vector_468" d="M25.8236 0H17.2129V8.58864H25.8236V0Z" fill="#682E87"/>
<path id="Vector_469" d="M17.2123 146.045H8.60742V154.637H17.2123V146.045Z" fill="url(#paint4_linear_11_28)"/>
<path id="Vector_470" d="M17.2123 137.456H8.60742V146.045H17.2123V137.456Z" fill="#682E87"/>
<path id="Vector_471" d="M17.2123 128.865H8.60742V137.456H17.2123V128.865Z" fill="#682E87"/>
<path id="Vector_472" d="M17.2123 120.273H8.60742V128.865H17.2123V120.273Z" fill="#532C6D"/>
<path id="Vector_473" d="M17.2123 111.685H8.60742V120.273H17.2123V111.685Z" fill="#532C6D"/>
<path id="Vector_474" d="M17.2123 103.09H8.60742V111.685H17.2123V103.09Z" fill="#532C6D"/>
<path id="Vector_475" d="M17.2123 94.5015H8.60742V103.09H17.2123V94.5015Z" fill="#532C6D"/>
<path id="Vector_476" d="M17.2123 85.9099H8.60742V94.5015H17.2123V85.9099Z" fill="#532C6D"/>
<path id="Vector_477" d="M17.2123 77.3154H8.60742V85.9069H17.2123V77.3154Z" fill="#532C6D"/>
<path id="Vector_478" d="M17.2123 68.7238H8.60742V77.3154H17.2123V68.7238Z" fill="#532C6D"/>
<path id="Vector_479" d="M17.2123 60.1351H8.60742V68.7238H17.2123V60.1351Z" fill="#532C6D"/>
<path id="Vector_480" d="M17.2123 51.5436H8.60742V60.1352H17.2123V51.5436Z" fill="#532C6D"/>
<path id="Vector_481" d="M17.2123 42.952H8.60742V51.5436H17.2123V42.952Z" fill="#532C6D"/>
<path id="Vector_482" d="M17.2123 34.3633H8.60742V42.952H17.2123V34.3633Z" fill="#532C6D"/>
<path id="Vector_483" d="M17.2123 25.7718H8.60742V34.3634H17.2123V25.7718Z" fill="#532C6D"/>
<path id="Vector_484" d="M17.2123 17.1802H8.60742V25.7718H17.2123V17.1802Z" fill="#532C6D"/>
<path id="Vector_485" d="M17.2123 8.58862H8.60742V17.1802H17.2123V8.58862Z" fill="#682E87"/>
<path id="Vector_486" d="M17.2123 0H8.60742V8.58864H17.2123V0Z" fill="url(#paint5_linear_11_28)"/>
<path id="Vector_487" d="M8.60777 137.456H0V146.045H8.60777V137.456Z" fill="url(#paint6_linear_11_28)"/>
<path id="Vector_488" d="M8.60777 128.865H0V137.456H8.60777V128.865Z" fill="#682E87"/>
<path id="Vector_489" d="M8.60777 120.273H0V128.865H8.60777V120.273Z" fill="#682E87"/>
<path id="Vector_490" d="M8.60777 111.685H0V120.273H8.60777V111.685Z" fill="#682E87"/>
<path id="Vector_491" d="M8.60777 103.09H0V111.685H8.60777V103.09Z" fill="#682E87"/>
<path id="Vector_492" d="M8.60777 94.5015H0V103.09H8.60777V94.5015Z" fill="#682E87"/>
<path id="Vector_493" d="M8.60777 85.9099H0V94.5015H8.60777V85.9099Z" fill="#682E87"/>
<path id="Vector_494" d="M8.60777 77.3154H0V85.9069H8.60777V77.3154Z" fill="#682E87"/>
<path id="Vector_495" d="M8.60777 68.7238H0V77.3154H8.60777V68.7238Z" fill="#682E87"/>
<path id="Vector_496" d="M8.60777 60.1351H0V68.7238H8.60777V60.1351Z" fill="#682E87"/>
<path id="Vector_497" d="M8.60777 51.5436H0V60.1352H8.60777V51.5436Z" fill="#682E87"/>
<path id="Vector_498" d="M8.60777 42.952H0V51.5436H8.60777V42.952Z" fill="#682E87"/>
<path id="Vector_499" d="M8.60777 34.3633H0V42.952H8.60777V34.3633Z" fill="#682E87"/>
<path id="Vector_500" d="M8.60777 25.7718H0V34.3634H8.60777V25.7718Z" fill="#682E87"/>
<path id="Vector_501" d="M8.60777 17.1802H0V25.7718H8.60777V17.1802Z" fill="#682E87"/>
<path id="Vector_502" d="M8.60777 8.58862H0V17.1802H8.60777V8.58862Z" fill="url(#paint7_linear_11_28)"/>
</g>
</g>
</g>
</g>
<defs>
<linearGradient id="paint0_linear_11_28" x1="236.698" y1="137.456" x2="236.698" y2="146.045" gradientUnits="userSpaceOnUse">
<stop stop-color="#FFE500"/>
<stop offset="1" stop-color="#FFF492"/>
</linearGradient>
<linearGradient id="paint1_linear_11_28" x1="236.698" y1="8.58862" x2="236.698" y2="17.1802" gradientUnits="userSpaceOnUse">
<stop stop-color="#FFE500"/>
<stop offset="1" stop-color="#FFF492"/>
</linearGradient>
<linearGradient id="paint2_linear_11_28" x1="228.091" y1="146.045" x2="228.091" y2="154.637" gradientUnits="userSpaceOnUse">
<stop stop-color="#FFE500"/>
<stop offset="1" stop-color="#FFF492"/>
</linearGradient>
<linearGradient id="paint3_linear_11_28" x1="228.091" y1="0" x2="228.091" y2="8.58864" gradientUnits="userSpaceOnUse">
<stop stop-color="#FFE500"/>
<stop offset="1" stop-color="#FFF492"/>
</linearGradient>
<linearGradient id="paint4_linear_11_28" x1="12.9098" y1="146.045" x2="12.9098" y2="154.637" gradientUnits="userSpaceOnUse">
<stop stop-color="#FFE500"/>
<stop offset="1" stop-color="#FFF492"/>
</linearGradient>
<linearGradient id="paint5_linear_11_28" x1="12.9098" y1="0" x2="12.9098" y2="8.58864" gradientUnits="userSpaceOnUse">
<stop stop-color="#FFE500"/>
<stop offset="1" stop-color="#FFF492"/>
</linearGradient>
<linearGradient id="paint6_linear_11_28" x1="4.30389" y1="137.456" x2="4.30389" y2="146.045" gradientUnits="userSpaceOnUse">
<stop stop-color="#FFE500"/>
<stop offset="1" stop-color="#FFF492"/>
</linearGradient>
<linearGradient id="paint7_linear_11_28" x1="4.30389" y1="8.58862" x2="4.30389" y2="17.1802" gradientUnits="userSpaceOnUse">
<stop stop-color="#FFE500"/>
<stop offset="1" stop-color="#FFF492"/>
</linearGradient>
<clipPath id="clip0_11_28">
<rect width="241" height="189" fill="white"/>
</clipPath>
</defs>
</svg>
