<svg width="60" height="61" viewBox="0 0 60 61" fill="none" xmlns="http://www.w3.org/2000/svg">
<g id="ant-design:dollar-outlined">
<path id="Vector" d="M30 4.25C15.5039 4.25 3.75 16.0039 3.75 30.5C3.75 44.9961 15.5039 56.75 30 56.75C44.4961 56.75 56.25 44.9961 56.25 30.5C56.25 16.0039 44.4961 4.25 30 4.25ZM30 52.2969C17.9648 52.2969 8.20312 42.5352 8.20312 30.5C8.20312 18.4648 17.9648 8.70312 30 8.70312C42.0352 8.70312 51.7969 18.4648 51.7969 30.5C51.7969 42.5352 42.0352 52.2969 30 52.2969ZM32.7949 29.1406L31.3066 28.7949V20.9258C33.5332 21.2305 34.9102 22.625 35.1445 24.3359C35.1738 24.5703 35.373 24.7402 35.6074 24.7402H38.2383C38.5137 24.7402 38.7305 24.5 38.707 24.2246C38.3496 20.5742 35.3438 18.2305 31.3301 17.8262V15.9102C31.3301 15.6523 31.1191 15.4414 30.8613 15.4414H29.2148C28.957 15.4414 28.7461 15.6523 28.7461 15.9102V17.8438C24.5977 18.248 21.3516 20.5391 21.3516 24.8164C21.3516 28.7773 24.2695 30.6875 27.334 31.4199L28.7812 31.7891V40.1504C26.1914 39.8047 24.7383 38.4219 24.4395 36.5586C24.4043 36.3359 24.2051 36.1719 23.9766 36.1719H21.2695C20.9941 36.1719 20.7773 36.4062 20.8008 36.6816C21.0645 39.9043 23.5078 42.8691 28.7227 43.25V45.0898C28.7227 45.3477 28.9336 45.5586 29.1914 45.5586H30.8555C31.1133 45.5586 31.3242 45.3477 31.3242 45.084L31.3125 43.2266C35.9004 42.8223 39.1816 40.3672 39.1816 35.9609C39.1758 31.8945 36.5918 30.0781 32.7949 29.1406ZM28.7754 28.1914C28.4473 28.0977 28.1719 28.0098 27.8965 27.8984C25.916 27.1836 24.9961 26.0293 24.9961 24.541C24.9961 22.4141 26.6074 21.2012 28.7754 20.9258V28.1914ZM31.3066 40.168V32.334C31.4883 32.3867 31.6523 32.4277 31.8223 32.4629C34.5937 33.3066 35.5254 34.4785 35.5254 36.2773C35.5254 38.5684 33.8027 39.9453 31.3066 40.168Z" fill="black"/>
</g>
</svg>
