<svg width="26" height="26" viewBox="0 0 26 26" fill="none" xmlns="http://www.w3.org/2000/svg">
<g id="mingcute:wallet-4-fill">
<path id="Vector" d="M15.7812 14.047L12.1319 17.6941V7.76433C12.1319 7.39163 11.8389 7.09879 11.466 7.09879C11.093 7.09879 10.8 7.39163 10.8 7.76433V17.6941L7.15069 14.047C6.88431 13.7808 6.45811 13.7808 6.21838 14.047C5.952 14.3132 5.952 14.7391 6.21838 14.9787L11.0131 19.7706C11.0398 19.7972 11.093 19.8238 11.1197 19.8771C11.1463 19.9037 11.1996 19.9303 11.2262 19.9303H11.2529C11.2795 19.9303 11.3061 19.9569 11.3328 19.9569C11.3594 19.9569 11.4127 19.9569 11.4393 19.9569H11.466C11.5192 19.9569 11.5459 19.9569 11.5992 19.9303H11.6258C11.6524 19.9303 11.7057 19.9037 11.7323 19.9037C11.7323 19.9037 11.7323 19.9037 11.759 19.9037C11.8389 19.8771 11.8922 19.8238 11.9454 19.7706L16.7402 14.9787C17.0066 14.7125 17.0066 14.2866 16.7402 14.047C16.4738 13.8074 16.0476 13.7808 15.7812 14.047ZM22.7869 8.35C22.3607 7.04555 21.6415 6.1138 20.6026 5.52813C19.4839 4.86259 18.3651 4.22368 17.2463 3.58477C16.1275 2.94586 15.0088 2.30694 13.89 1.6414C13.1708 1.24208 12.4515 1.02911 11.6524 1.00249C10.6935 0.975868 9.86771 1.16222 9.1485 1.58816C8.5092 1.96086 7.89654 2.30694 7.25724 2.67964C5.65899 3.58477 4.00746 4.54314 2.38257 5.50151C0.8376 6.43326 0.0118389 7.87081 0.0118389 9.62783C-0.0147986 11.3582 0.0118389 13.1152 0.0118389 14.819C0.0118389 15.6709 0.0118389 16.5494 0.0118389 17.4013C0.0118389 17.9071 0.0917522 18.3863 0.22494 18.7856C0.65114 20.0102 1.37035 20.9419 2.38257 21.5276C3.50135 22.1665 4.62013 22.8054 5.7389 23.4444C6.83104 24.0833 7.94981 24.7222 9.04195 25.3345C9.70789 25.7338 10.4005 25.9468 11.1996 26C11.3328 26 11.466 26 11.5725 26C12.4249 26 13.1974 25.787 13.89 25.3877L13.9166 25.3611C16.1009 24.0833 18.3651 22.7522 20.576 21.501C21.2952 21.1017 21.8812 20.5426 22.3074 19.7972C22.7869 18.972 23 18.2798 23 17.5344V9.57459C22.9734 9.22851 22.9201 8.77595 22.7869 8.35ZM21.6415 17.6143C21.6415 18.0934 21.4817 18.5992 21.1087 19.2115C20.8157 19.744 20.4162 20.1433 19.8834 20.4361C17.6459 21.714 15.3817 23.045 13.1974 24.3229L13.1708 24.3495C12.6114 24.6689 11.9987 24.802 11.2529 24.7754C10.6668 24.7222 10.1607 24.5624 9.68125 24.2696C8.58911 23.6307 7.47034 22.9918 6.3782 22.3529C5.25942 21.714 4.14065 21.075 3.02188 20.4361C2.27603 20.0102 1.76991 19.3713 1.45026 18.4129C1.34371 18.1467 1.29044 17.8272 1.29044 17.4545C1.29044 16.6026 1.29044 15.7241 1.29044 14.8722C1.29044 13.1685 1.29044 11.4115 1.29044 9.68107C1.29044 8.35 1.84983 7.39163 3.02188 6.67286C4.62013 5.71449 6.27165 4.78273 7.8699 3.85098C8.5092 3.47828 9.1485 3.1322 9.7878 2.7595C10.2673 2.46667 10.7734 2.33356 11.4127 2.33356C11.466 2.33356 11.5192 2.33356 11.5725 2.33356C12.1585 2.36018 12.6913 2.51992 13.1974 2.81275C14.3162 3.45166 15.435 4.1172 16.5537 4.75611C17.6725 5.39503 18.7913 6.06056 19.91 6.69947C20.6559 7.12541 21.162 7.79095 21.4817 8.77595C21.5616 9.04216 21.6149 9.36162 21.6149 9.68107V17.6143H21.6415Z" fill="black"/>
</g>
</svg>
