<svg width="60" height="60" viewBox="0 0 60 60" fill="none" xmlns="http://www.w3.org/2000/svg">
<g id="bsc.67e32b4c" clip-path="url(#clip0_436_1139)">
<path id="Vector" d="M30 60C46.5686 60 60 46.5686 60 30C60 13.4314 46.5686 0 30 0C13.4314 0 0 13.4314 0 30C0 46.5686 13.4314 60 30 60Z" fill="#17181D"/>
<path id="Vector_2" d="M16.4894 30.0002L16.5111 37.9328L23.2515 41.8992V46.5434L12.5664 40.2767V27.6805L16.4894 30.0002ZM16.4894 22.0675V26.6901L12.564 24.3679V19.7453L16.4894 17.4232L20.4342 19.7453L16.4894 22.0675ZM26.0664 19.7453L29.9919 17.4232L33.9367 19.7453L29.9919 22.0675L26.0664 19.7453Z" fill="#F1B90C"/>
<path id="Vector_3" d="M19.3276 36.2886V31.6444L23.2531 33.9666V38.5892L19.3276 36.2886ZM26.0679 43.5627L29.9934 45.8847L33.9382 43.5627V48.1853L29.9934 50.5073L26.0679 48.1853V43.5627ZM39.5679 19.7453L43.4934 17.4232L47.4382 19.7453V24.3679L43.4934 26.6901V22.0675L39.5679 19.7453ZM43.4934 37.9328L43.5151 30.0002L47.4406 27.6779V40.2741L36.7554 46.5411V41.8969L43.4934 37.9328Z" fill="#F1B90C"/>
<path id="Vector_4" d="M40.6765 36.2891L36.751 38.5895V33.9669L40.6765 31.6449V36.2891Z" fill="#F1B90C"/>
<path id="Vector_5" d="M40.6786 23.7109L40.7002 28.3551L33.9406 32.3216V40.2735L30.0151 42.5739L26.0896 40.2735V32.3216L19.33 28.3551V23.7109L23.2724 21.3888L29.9911 25.3744L36.7507 21.3888L40.6955 23.7109H40.6786ZM19.3276 15.7806L29.9934 9.49219L40.6786 15.7806L36.7531 18.1028L29.9934 14.1172L23.2531 18.1028L19.3276 15.7806Z" fill="#F1B90C"/>
</g>
<defs>
<clipPath id="clip0_436_1139">
<rect width="60" height="60" fill="white"/>
</clipPath>
</defs>
</svg>
