<svg width="26" height="26" viewBox="0 0 26 26" fill="none" xmlns="http://www.w3.org/2000/svg">
<g id="carbon:play-filled">
<path id="Vector" d="M13 1.625C10.7502 1.625 8.551 2.29213 6.68039 3.54203C4.80978 4.79193 3.35182 6.56847 2.49088 8.64698C1.62993 10.7255 1.40467 13.0126 1.84357 15.2192C2.28248 17.4257 3.36584 19.4525 4.95667 21.0433C6.54749 22.6342 8.57432 23.7175 10.7809 24.1564C12.9874 24.5953 15.2745 24.3701 17.353 23.5091C19.4315 22.6482 21.2081 21.1902 22.458 19.3196C23.7079 17.449 24.375 15.2498 24.375 13C24.375 9.98316 23.1766 7.08989 21.0433 4.95666C18.9101 2.82343 16.0168 1.625 13 1.625ZM19.0507 13.7272L9.30069 18.6022C9.17679 18.6641 9.03912 18.6933 8.90075 18.687C8.76238 18.6808 8.62791 18.6392 8.51011 18.5664C8.39231 18.4935 8.29509 18.3918 8.22769 18.2707C8.16029 18.1497 8.12494 18.0135 8.12501 17.875V8.125C8.12508 7.98656 8.16053 7.85043 8.22799 7.72953C8.29544 7.60864 8.39267 7.50698 8.51045 7.43422C8.62823 7.36145 8.76265 7.31999 8.90095 7.31376C9.03925 7.30753 9.17685 7.33674 9.30069 7.39863L19.0507 12.2736C19.1855 12.3412 19.2988 12.4449 19.378 12.5732C19.4572 12.7015 19.4991 12.8492 19.4991 13C19.4991 13.1508 19.4572 13.2985 19.378 13.4268C19.2988 13.5551 19.1855 13.6588 19.0507 13.7264V13.7272Z" fill="white"/>
</g>
</svg>
