<svg width="46" height="50" viewBox="0 0 46 50" fill="none" xmlns="http://www.w3.org/2000/svg">
<g id="entypo-social:linkedin-with-circle">
<path id="Vector" d="M22.6048 6.5791C12.5054 6.5791 4.31848 14.766 4.31848 24.8654C4.31848 34.9648 12.5054 43.1518 22.6048 43.1518C32.7042 43.1518 40.8912 34.9648 40.8912 24.8654C40.8912 14.766 32.7042 6.5791 22.6048 6.5791ZM18.1285 32.4447H14.4255V20.5282H18.1285V32.4447ZM16.2541 19.0652C15.0846 19.0652 14.3283 18.2366 14.3283 17.2118C14.3283 16.1661 15.1074 15.3623 16.3017 15.3623C17.4961 15.3623 18.2275 16.1661 18.2504 17.2118C18.2504 18.2366 17.4961 19.0652 16.2541 19.0652ZM31.6528 32.4447H27.9498V25.8407C27.9498 24.3035 27.4126 23.2597 26.0735 23.2597C25.0506 23.2597 24.443 23.9664 24.1744 24.6464C24.0753 24.8883 24.0506 25.2312 24.0506 25.5721V32.4428H20.3457V24.3283C20.3457 22.8406 20.2981 21.5968 20.2486 20.5262H23.4658L23.6353 22.1815H23.7096C24.1973 21.4044 25.3916 20.2577 27.3897 20.2577C29.826 20.2577 31.6528 21.8901 31.6528 25.3988V32.4447Z" fill="white"/>
</g>
</svg>
