<svg width="30" height="30" viewBox="0 0 30 30" fill="none" xmlns="http://www.w3.org/2000/svg">
<g id="ep:arrow-right-bold">
<path id="Vector" d="M9.92446 3.0675C9.57295 3.41911 9.37549 3.89594 9.37549 4.39312C9.37549 4.89031 9.57295 5.36713 9.92446 5.71875L19.2057 15L9.92446 24.2812C9.58292 24.6349 9.39393 25.1085 9.3982 25.6001C9.40247 26.0917 9.59966 26.562 9.9473 26.9097C10.2949 27.2573 10.7652 27.4545 11.2568 27.4588C11.7485 27.463 12.2221 27.274 12.5757 26.9325L23.1826 16.3256C23.5341 15.974 23.7316 15.4972 23.7316 15C23.7316 14.5028 23.5341 14.026 23.1826 13.6744L12.5757 3.0675C12.2241 2.71599 11.7473 2.51852 11.2501 2.51852C10.7529 2.51852 10.2761 2.71599 9.92446 3.0675Z" fill="#FFE600"/>
</g>
</svg>
