<svg width="30" height="30" viewBox="0 0 30 30" fill="none" xmlns="http://www.w3.org/2000/svg">
<g id="ep:arrow-right-bold" opacity="0.4">
<path id="Vector" d="M20.0755 3.0675C20.427 3.41911 20.6245 3.89594 20.6245 4.39312C20.6245 4.89031 20.427 5.36713 20.0755 5.71875L10.7943 15L20.0755 24.2812C20.4171 24.6349 20.6061 25.1085 20.6018 25.6001C20.5975 26.0917 20.4003 26.562 20.0527 26.9097C19.7051 27.2573 19.2348 27.4545 18.7432 27.4588C18.2515 27.463 17.7779 27.274 17.4243 26.9325L6.81742 16.3256C6.46591 15.974 6.26844 15.4972 6.26844 15C6.26844 14.5028 6.46591 14.026 6.81742 13.6744L17.4243 3.0675C17.7759 2.71599 18.2527 2.51852 18.7499 2.51852C19.2471 2.51852 19.7239 2.71599 20.0755 3.0675Z" fill="white"/>
</g>
</svg>
