<svg width="60" height="60" viewBox="0 0 60 60" fill="none" xmlns="http://www.w3.org/2000/svg">
<g id="eth.47c40f70" clip-path="url(#clip0_435_1063)">
<path id="Vector" d="M30 60C46.5686 60 60 46.5686 60 30C60 13.4314 46.5686 0 30 0C13.4314 0 0 13.4314 0 30C0 46.5686 13.4314 60 30 60Z" fill="#282729"/>
<path id="Vector_2" fill-rule="evenodd" clip-rule="evenodd" d="M20.2143 16C18.4518 16 17 17.4728 17 19.2609V39.913C17.0001 40.5133 17.4797 40.9999 18.0714 41H43.7857C44.3774 40.9999 44.8571 40.5133 44.8571 39.913V35.5652H45.9286C46.5203 35.5652 46.9999 35.0785 47 34.4783V27.9565C46.9999 27.3562 46.5203 26.8696 45.9286 26.8696H44.8571V21.4348C44.8571 20.8345 44.3774 20.3479 43.7857 20.3478H41.6429V17.087C41.6428 16.4867 41.1631 16.0001 40.5714 16H20.2143ZM20.2143 18.1739H39.5V20.3478H20.2143C19.6099 20.3478 19.1429 19.8741 19.1429 19.2609C19.1429 18.6477 19.6099 18.1739 20.2143 18.1739ZM19.1429 22.3286C19.4789 22.4509 19.839 22.5217 20.2143 22.5217C27.7143 22.5217 35.2143 22.5217 42.7143 22.5217V26.8696H38.4286C36.0743 26.8696 34.1429 28.829 34.1429 31.2174C34.1429 33.6057 36.0743 35.5652 38.4286 35.5652H42.7143V38.8261H19.1429V22.3286ZM38.4286 29.0435H44.8571V33.3913H38.4286C37.2324 33.3913 36.2857 32.4309 36.2857 31.2174C36.2857 30.0039 37.2324 29.0435 38.4286 29.0435Z" fill="#FFE600"/>
</g>
<defs>
<clipPath id="clip0_435_1063">
<rect width="60" height="60" fill="white"/>
</clipPath>
</defs>
</svg>
