<svg width="18" height="10" viewBox="0 0 18 10" fill="none" xmlns="http://www.w3.org/2000/svg">
<g id="Group 7">
<path id="Vector 1 (Stroke)" fill-rule="evenodd" clip-rule="evenodd" d="M10.7474 0.335647C11.1143 0.74843 11.0772 1.3805 10.6644 1.74742L1.66437 9.74742C1.25159 10.1143 0.619519 10.0772 0.252601 9.66437C-0.114317 9.25159 -0.077136 8.61952 0.335647 8.2526L9.33565 0.252601C9.74843 -0.114317 10.3805 -0.077136 10.7474 0.335647Z" fill="#FFE600"/>
<path id="Vector 2 (Stroke)" fill-rule="evenodd" clip-rule="evenodd" d="M17.7474 0.335647C18.1143 0.74843 18.0772 1.3805 17.6644 1.74742L8.66437 9.74742C8.25159 10.1143 7.61952 10.0772 7.2526 9.66437C6.88568 9.25159 6.92286 8.61952 7.33565 8.2526L16.3356 0.252601C16.7484 -0.114317 17.3805 -0.077136 17.7474 0.335647Z" fill="#FFE600"/>
</g>
</svg>
