<svg width="23" height="23" viewBox="0 0 23 23" fill="none" xmlns="http://www.w3.org/2000/svg">
<g id="Group 1000000931">
<path id="Vector" d="M5.51935 11.4376C5.52775 11.4405 5.53573 11.4453 5.54434 11.4474C5.57059 11.4546 5.59747 11.4581 5.62456 11.4581C5.65144 11.4581 5.67832 11.4546 5.70457 11.4474C5.71339 11.4449 5.72158 11.4405 5.73019 11.4373C5.74594 11.4319 5.7619 11.4271 5.77681 11.4191L10.0862 9.04568C10.1868 8.99003 10.2493 8.88419 10.2493 8.76954V3.67857C10.2493 3.56727 10.1903 3.46395 10.0944 3.40725C10.0918 3.40557 10.0887 3.40515 10.0862 3.40368C10.0857 3.40326 10.0862 3.40242 10.0853 3.402L5.77618 1.0389C5.68189 0.987033 5.56723 0.987033 5.47315 1.0389L1.1638 3.402C1.16275 3.40242 1.16296 3.40347 1.16191 3.4041C1.1596 3.40536 1.15687 3.40578 1.15456 3.40725C1.0588 3.46395 1 3.56727 1 3.67857V8.76954C1 8.88441 1.06258 8.99024 1.16317 9.04568L5.47252 11.4191C5.48743 11.4275 5.50339 11.4321 5.51935 11.4376ZM9.61871 8.58327L5.93998 10.6095V6.22836L9.61871 4.21091V8.58327ZM5.62456 1.67498L9.27789 3.67857L5.62456 5.68194L1.97103 3.67857L5.62456 1.67498ZM5.30936 10.6095L1.63041 8.58327V4.21091L5.30915 6.22836L5.30936 10.6095Z" fill="black" stroke="black" stroke-width="0.5"/>
<path id="Vector_2" d="M21.8448 13.9487C21.8423 13.947 21.8392 13.9466 21.8367 13.9454C21.8362 13.9447 21.8367 13.9441 21.8358 13.9437L17.5267 11.5804C17.4324 11.5285 17.3177 11.5285 17.2236 11.5804L12.9141 13.9439C12.913 13.9443 12.9132 13.9452 12.9124 13.946C12.9099 13.9473 12.9074 13.9477 12.905 13.9489C12.8091 14.0058 12.7505 14.109 12.7505 14.2205V19.3114C12.7505 19.4263 12.8131 19.5321 12.9137 19.5874L17.2228 21.9608C17.2379 21.9692 17.2539 21.9738 17.2701 21.9794C17.2782 21.9824 17.2864 21.9872 17.295 21.9893C17.3213 21.9962 17.3482 22 17.375 22C17.4021 22 17.429 21.9962 17.4551 21.9893C17.4641 21.9868 17.4721 21.9824 17.4807 21.979C17.4964 21.9736 17.5124 21.9687 17.5273 21.9608L21.8367 19.5874C21.9372 19.5319 21.9998 19.4261 21.9998 19.3114V14.2203C21.9998 14.1087 21.9408 14.0056 21.8448 13.9487ZM17.0598 21.151L13.3809 19.1252V14.7524L17.0598 16.7698V21.151ZM17.375 16.2236L13.7215 14.2203L17.375 12.2167L21.0286 14.2203L17.375 16.2236ZM21.369 19.1252L17.6903 21.151V16.77L21.369 14.7526V19.1252Z" fill="black" stroke="black" stroke-width="0.5"/>
<path id="Vector_3" d="M10.1719 16.9206H5.93956V13.9485C5.93956 13.7746 5.79865 13.6335 5.62457 13.6335C5.45048 13.6335 5.30957 13.7746 5.30957 13.9485V17.2356C5.30957 17.4095 5.45048 17.5506 5.62457 17.5506H10.1716C10.3457 17.5506 10.4866 17.4095 10.4866 17.2356C10.4866 17.0617 10.3457 16.9206 10.1719 16.9206Z" fill="black" stroke="black" stroke-width="0.5"/>
<path id="Vector_4" d="M17.0602 6.02111V8.9932C17.0602 9.16729 17.2013 9.30819 17.3752 9.30819C17.5491 9.30819 17.6902 9.16729 17.6902 8.9932V5.70611C17.6902 5.53202 17.5491 5.39111 17.3752 5.39111H12.8279C12.6541 5.39111 12.5129 5.53202 12.5129 5.70611C12.5129 5.8802 12.6541 6.02111 12.8279 6.02111H17.0602Z" fill="black" stroke="black" stroke-width="0.5"/>
</g>
</svg>
