<svg width="57" height="22" viewBox="0 0 57 22" fill="none" xmlns="http://www.w3.org/2000/svg">
<g id="Group 87">
<path id="Vector" d="M11 0C4.92479 0 0 4.92479 0 11C0 17.0752 4.92479 22 11 22C17.0752 22 22 17.0752 22 11C22 4.92479 17.0752 0 11 0ZM8.30729 15.5593H6.07979V8.39094H8.30729V15.5593ZM7.17979 7.51094C6.47625 7.51094 6.02135 7.0125 6.02135 6.39604C6.02135 5.76698 6.49 5.28344 7.20844 5.28344C7.92687 5.28344 8.36687 5.76698 8.38062 6.39604C8.38062 7.0125 7.92687 7.51094 7.17979 7.51094ZM16.4427 15.5593H14.2152V11.5867C14.2152 10.662 13.8921 10.0341 13.0866 10.0341C12.4712 10.0341 12.1057 10.4592 11.9442 10.8682C11.8846 11.0138 11.8697 11.22 11.8697 11.4251V15.5581H9.64104V10.6769C9.64104 9.78198 9.6124 9.03375 9.5826 8.38979H11.5179L11.6199 9.38552H11.6646C11.9579 8.91802 12.6764 8.22823 13.8783 8.22823C15.3439 8.22823 16.4427 9.21021 16.4427 11.3208V15.5593Z" fill="white"/>
<path id="Vector_2" d="M46 0C39.9254 0 35 4.92545 35 11C35 17.0746 39.9254 22 46 22C52.0746 22 57 17.0746 57 11C57 4.92545 52.0746 0 46 0ZM51.2864 8.29174C51.2937 8.40714 51.2937 8.52746 51.2937 8.64531C51.2937 12.2498 48.5487 16.4018 43.5324 16.4018C41.9855 16.4018 40.5516 15.9525 39.3435 15.179C39.5645 15.2036 39.7757 15.2134 40.0016 15.2134C41.2783 15.2134 42.452 14.7812 43.3875 14.0496C42.1893 14.025 41.1826 13.2393 40.8388 12.1589C41.2587 12.2203 41.6368 12.2203 42.069 12.1098C41.452 11.9845 40.8975 11.6494 40.4995 11.1615C40.1016 10.6736 39.8849 10.0631 39.8862 9.43348V9.39911C40.2471 9.6029 40.6719 9.72812 41.1163 9.74531C40.7427 9.49633 40.4363 9.159 40.2243 8.76324C40.0123 8.36749 39.9012 7.92553 39.9009 7.47656C39.9009 6.9683 40.0335 6.50424 40.2717 6.10156C40.9565 6.94458 41.811 7.63405 42.7797 8.12518C43.7484 8.61631 44.8097 8.8981 45.8944 8.95223C45.5089 7.09844 46.8938 5.59821 48.5585 5.59821C49.3442 5.59821 50.0513 5.92723 50.5498 6.45759C51.1661 6.34219 51.7554 6.11138 52.2808 5.80201C52.077 6.43304 51.6498 6.96585 51.0826 7.30223C51.6326 7.2433 52.1629 7.09107 52.654 6.87746C52.2833 7.42254 51.8192 7.90625 51.2864 8.29174Z" fill="white"/>
</g>
</svg>
