<svg width="102" height="108" viewBox="0 0 102 108" fill="none" xmlns="http://www.w3.org/2000/svg">
<g id="Group">
<path id="Vector" d="M26.8666 54.3365H24.2075V57.0075H26.8666V54.3365Z" fill="white"/>
<path id="Vector_2" d="M74.0013 95.0983V88.4633H64.3391V95.0983H61.6801V88.4633H57.2454V62.3525H61.6801V56.1171H64.3391V62.3525H74.0013V56.1171H76.6603V62.3202L77.9533 62.8079C80.7381 63.857 82.6103 66.5662 82.6103 69.5487C82.6103 71.2177 82.0253 72.8427 80.9663 74.1297L79.9132 75.4079L80.9663 76.6861C82.0282 77.9732 82.6103 79.5981 82.6103 81.2671C82.6103 84.2496 80.7381 86.9559 77.9533 88.0079L76.6603 88.4957V95.0983H74.0013ZM59.9044 85.7923H75.4463C77.9299 85.7923 79.9512 83.7619 79.9512 81.2671C79.9512 78.7724 77.9299 76.742 75.4463 76.742H59.9044V85.7923ZM59.9044 74.0739H75.4463C77.9299 74.0739 79.9512 72.0434 79.9512 69.5487C79.9512 67.054 77.9299 65.0235 75.4463 65.0235H59.9044V74.0739Z" fill="#FFE600"/>
<path id="Vector_3" d="M68.9731 107C56.4577 107 45.0441 99.5331 39.8994 87.9746C39.5908 87.2823 38.9037 86.8364 38.1457 86.8364H4.83081C2.62167 86.8364 0.830811 85.0455 0.830811 82.8364V33.8339C0.830811 31.6248 2.62167 29.8339 4.83081 29.8339H8.4715C10.6806 29.8339 12.4715 28.0431 12.4715 25.8339V15.0956C12.4715 7.32291 18.732 1 26.4252 1C34.1212 1 40.3817 7.32291 40.3817 15.0956V25.8339C40.3817 28.0431 42.1725 29.8339 44.3817 29.8339H48.0224C50.2315 29.8339 52.0224 31.6248 52.0224 33.8339V44.3158C52.0224 45.7371 53.5206 46.6593 54.7895 46.0192C59.2249 43.7823 63.9967 42.6468 68.9731 42.6468C86.5407 42.6468 100.831 57.0822 100.831 74.822C100.831 92.5646 86.5379 107 68.9731 107ZM68.9731 45.2207C52.813 45.2207 39.6639 58.5008 39.6639 74.822C39.6639 91.1432 52.813 104.423 68.9731 104.423C85.1333 104.423 98.2823 91.1432 98.2823 74.822C98.2823 58.5008 85.1333 45.2207 68.9731 45.2207ZM3.37931 80.2596C3.37931 82.4688 5.17017 84.2596 7.37931 84.2596H36.0022C37.2404 84.2596 38.1596 83.1121 37.8892 81.9038C37.3734 79.5875 37.1098 77.2062 37.1098 74.822C37.1098 65.172 41.3601 56.1109 48.7701 49.9579C49.2124 49.5902 49.4682 49.0448 49.4682 48.4696V36.405C49.4682 34.1959 47.6774 32.405 45.4682 32.405H7.37931C5.17017 32.405 3.37931 34.1959 3.37931 36.405V80.2596ZM26.4252 3.5739C20.1366 3.5739 15.02 8.74153 15.02 15.0927V25.8311C15.02 28.0402 16.8109 29.8311 19.02 29.8311H33.8332C36.0423 29.8311 37.8332 28.0402 37.8332 25.8311V15.0956C37.8332 8.74152 32.7165 3.5739 26.4252 3.5739Z" fill="white" stroke="white"/>
</g>
</svg>
