<svg width="59" height="60" viewBox="0 0 59 60" fill="none" xmlns="http://www.w3.org/2000/svg">
<g id="mantle.61752091" clip-path="url(#clip0_436_1119)">
<path id="Vector" d="M58.7755 30C58.7755 13.4315 45.6182 0 29.3878 0C13.1573 0 0 13.4315 0 30C0 46.5685 13.1573 60 29.3878 60C45.6182 60 58.7755 46.5685 58.7755 30Z" fill="black"/>
<path id="Vector_2" d="M29.4489 51.6621L29.4517 44.2498C28.7201 44.2498 27.9829 44.1902 27.2612 44.0724L26.1347 51.3947C27.2272 51.5721 28.3408 51.6621 29.4489 51.6621ZM32.7631 51.3977C33.8584 51.2203 34.9466 50.9543 35.9995 50.604L33.7777 43.5521C33.0844 43.7831 32.3655 43.959 31.6424 44.0754L32.7631 51.3977ZM22.8969 50.5997L25.1243 43.5491C24.4295 43.3181 23.7488 43.0275 23.0993 42.6874L19.8191 49.2902C20.8053 49.8075 21.8412 50.2479 22.8969 50.5997ZM39.076 49.2988C40.0638 48.7828 41.0189 48.1813 41.9161 47.5112L37.6694 41.5174C37.0793 41.9591 36.4509 42.3546 35.8015 42.6932L39.076 49.2988ZM16.9803 47.4996L21.2314 41.5086C20.644 41.0696 20.0836 40.5756 19.5629 40.0421L14.4557 45.2801L14.4599 45.2846C15.2439 46.0898 16.0916 46.8354 16.9803 47.4996ZM44.4067 45.3296L44.4506 45.2831C45.2318 44.4808 45.9564 43.6118 46.6044 42.7003L40.7728 38.3329C40.3454 38.9346 39.8656 39.5102 39.3476 40.0436L39.2756 40.1192L41.7293 42.4984L44.4067 45.3296ZM12.2962 42.6859L18.1308 38.3228C17.7006 37.7168 17.3157 37.0714 16.9845 36.4043L10.5542 39.7689C11.0566 40.782 11.6425 41.7645 12.2962 42.6859ZM48.3493 39.7834C48.8531 38.7703 49.2818 37.7064 49.6256 36.6223L42.761 34.3331C42.536 35.0468 42.253 35.7458 41.9218 36.4129L48.3493 39.7834ZM9.28203 36.6062L16.1482 34.323C15.9232 33.6109 15.752 32.8725 15.6373 32.1298L8.50795 33.2839C8.68059 34.4087 8.94098 35.5249 9.28203 36.6062ZM50.4013 33.2998C50.574 32.1778 50.6616 31.0324 50.663 29.8959L43.4459 29.8916C43.4459 30.6429 43.3879 31.4001 43.2733 32.1429L50.4013 33.2998ZM15.4661 29.88C15.4661 29.1285 15.5241 28.3699 15.6373 27.6285L8.50795 26.4746C8.3353 27.5966 8.24899 28.7419 8.24756 29.8785H15.4647L15.4661 29.88ZM43.2761 27.6401L50.4055 26.4906C50.2343 25.3656 49.9739 24.2479 49.6343 23.1666L42.7667 25.4456C42.9917 26.1593 43.1629 26.8974 43.2761 27.6401ZM16.1482 25.4368C16.3732 24.7232 16.6562 24.0227 16.986 23.3556L10.5556 19.9896C10.0533 21.0024 9.62449 22.0663 9.28203 23.1506L16.1482 25.4368ZM41.9303 23.3657L48.3634 20.0055C47.8611 18.9909 47.2752 18.0099 46.6228 17.0885L40.7854 21.4487C41.2143 22.0547 41.5991 22.6986 41.9303 23.3657ZM18.1336 21.4371C18.5624 20.8324 19.0435 20.2539 19.5644 19.7207L19.5785 19.7061L14.4755 14.4651L14.4614 14.4796C13.6774 15.2848 12.95 16.1583 12.3005 17.0725L18.1336 21.4371ZM39.3732 19.7468L40.9142 18.132L44.4618 14.4897L44.4506 14.4781C43.671 13.6773 42.8261 12.9346 41.9402 12.2704L37.6863 18.2584C38.2722 18.6974 38.8312 19.1886 39.3476 19.7207L39.3732 19.7468ZM21.2483 18.2425C21.8384 17.8021 22.4668 17.4067 23.1162 17.0681L19.8459 10.4609C18.8581 10.9769 17.9029 11.5771 17.0058 12.2472L21.2483 18.2425ZM35.8198 17.0797L39.1043 10.4798C38.118 9.9624 37.0835 9.52056 36.0277 9.16885L33.7961 16.2179C34.491 16.4504 35.1716 16.7396 35.8211 17.0812L35.8198 17.0797ZM25.1427 16.2092C25.8375 15.9795 26.5564 15.8036 27.2781 15.6874L26.1615 8.36367C25.0678 8.53952 23.978 8.80549 22.9252 9.15576L25.1427 16.2092ZM31.6607 15.6917L32.79 8.36946C31.6976 8.19216 30.5824 8.10059 29.4757 8.10059L29.4688 15.5129C30.2003 15.5129 30.9376 15.574 31.6607 15.6917Z" fill="white"/>
<path id="Vector_3" d="M29.4539 44.5789V37.1291C28.8443 37.1291 28.236 37.0474 27.6478 36.8882L25.7646 44.0852C26.9666 44.4124 28.2073 44.5789 29.4539 44.5789ZM33.1432 44.0852C34.3495 43.7565 35.5102 43.2671 36.5891 42.6304L32.9371 36.1798C32.4118 36.4894 31.8481 36.7275 31.2613 36.8867L33.1432 44.0852ZM22.3171 42.6289L25.9705 36.1798C25.4469 35.8701 24.9618 35.4889 24.5267 35.0462L24.4595 34.9791L22.154 37.4563L19.3249 40.2713L19.3662 40.3121C20.2506 41.2149 21.2424 41.9934 22.3171 42.6289ZM39.5414 40.3151C40.4244 39.4108 41.1886 38.3985 41.8096 37.3029L35.4929 33.5723C35.1895 34.107 34.8161 34.6022 34.3824 35.0447L39.5414 40.3151ZM17.0895 37.287L23.412 33.5649C23.1085 33.0289 22.8767 32.4534 22.7206 31.8531L15.667 33.768C15.9875 34.9995 16.4669 36.1841 17.0895 37.287ZM43.2379 33.7871C43.5584 32.5599 43.7217 31.2936 43.7229 30.0212L36.4247 30.0184C36.4247 30.6422 36.3444 31.2628 36.187 31.8632L43.2379 33.7871ZM22.4859 30.0096C22.4859 29.3859 22.5662 28.7649 22.725 28.1648L15.6755 26.2365C15.3536 27.4635 15.189 28.7301 15.189 30.0023L22.4859 30.0096ZM36.1885 28.1734L43.2408 26.2554C42.9188 25.0241 42.4393 23.8395 41.8168 22.7381L35.4958 26.463C35.7993 26.9991 36.0325 27.5745 36.1885 28.1734ZM23.419 26.4542C23.7182 25.9268 24.0873 25.4376 24.5138 24.9992L24.5324 24.9803L21.9222 22.3159L19.4121 19.6734L19.3662 19.7186C18.4847 20.6184 17.7234 21.6279 17.1037 22.7205L23.419 26.4542ZM34.3868 24.9891L36.9713 22.3509L39.6087 19.7859L39.5429 19.7173C38.6613 18.8175 37.6696 18.0389 36.5977 17.4049L32.9413 23.8526C33.458 24.1579 33.9388 24.5348 34.3681 24.9699L34.3868 24.9891ZM25.9749 23.8481C26.4988 23.5386 27.0625 23.3019 27.6506 23.1413L25.7731 15.9427C24.5653 16.2714 23.4061 16.7593 22.3257 17.3961L25.9749 23.8481ZM31.2657 23.1441L33.1531 15.9471C31.9511 15.6184 30.7102 15.4519 29.4638 15.4504L29.4596 22.9001C30.0707 22.9001 30.6775 22.9834 31.2657 23.1441Z" fill="white"/>
</g>
<defs>
<clipPath id="clip0_436_1119">
<rect width="58.7755" height="60" fill="white"/>
</clipPath>
</defs>
</svg>
