<svg width="180" height="180" viewBox="0 0 180 180" fill="none" xmlns="http://www.w3.org/2000/svg">
<g id="Mask Group">
<mask id="mask0_823_722" style="mask-type:alpha" maskUnits="userSpaceOnUse" x="0" y="0" width="180" height="180">
<circle id="Ellipse 170" cx="90" cy="90" r="90" fill="#C4C4C4"/>
</mask>
<g mask="url(#mask0_823_722)">
<circle id="Ellipse 171" cx="90" cy="90" r="89.5" fill="#39373F" stroke="url(#paint0_linear_823_722)"/>
<g id="Group 82">
<path id="Vector" d="M18.81 186.869C18.81 186.869 33.3719 159.502 52.4796 138.113C71.5873 116.725 98.7079 118.081 109.572 119.19C120.435 120.3 165.307 145.171 178.914 153.815C192.521 162.46 195.51 177.777 188.422 183.525C181.333 189.273 193.892 192.925 121.252 193.649C48.6118 194.373 20.8132 195.668 16.4677 193.942C12.1223 192.216 18.81 186.869 18.81 186.869Z" fill="white" stroke="#212529" stroke-linecap="round" stroke-linejoin="round"/>
<path id="Vector_2" d="M67.1336 104.566C67.1336 104.566 57.3486 110.437 53.8815 118.712C50.4143 126.987 46.3154 155.032 46.3154 155.032L66.7484 145.57L55.6381 164.262L96.7813 192.492L127.924 188.717L143.179 143.151L121.714 130.623L132.824 128.558C132.824 128.558 125.566 113.827 107.614 102.362C89.6622 90.8976 67.1336 104.566 67.1336 104.566Z" fill="white" stroke="#212529" stroke-linecap="round" stroke-linejoin="round"/>
<path id="Vector_3" d="M59.8755 98.3256C65.2933 106.516 69.1344 115.646 71.2014 125.246C75.0846 142.073 88.8144 170.812 97.1201 175.065C105.426 179.318 115.735 184.233 113.377 158.823C111.019 133.413 99.2466 113.488 98.0755 113.149C96.9044 112.81 65.6078 96.8925 59.8755 98.3256Z" fill="white" stroke="#212529" stroke-linecap="round" stroke-linejoin="round"/>
<path id="Vector_4" d="M113.378 158.823C112.843 153.393 111.901 148.01 110.558 142.721C108.485 145.381 106.023 147.714 103.254 149.639C96.7508 154.124 84.3462 146.08 75.5166 138.853C81.3876 154.401 90.8182 171.767 97.0898 175.003C105.442 179.303 115.735 184.234 113.378 158.823Z" fill="#212529" stroke="#212529" stroke-linecap="round" stroke-linejoin="round"/>
<path id="Vector_5" d="M103.87 47.1506C103.87 47.1506 120.004 94.3342 117.739 104.874C115.474 115.414 106.952 122.78 92.2671 122.318C77.5819 121.856 62.0492 104.797 62.0492 104.797L50.9235 106.477C50.9235 106.477 36.5928 94.7195 39.7517 89.6035C42.9106 84.4876 49.999 85.6433 49.999 85.6433C47.6746 80.5646 46.1167 75.169 45.3761 69.6329C43.7427 59.2624 41.2772 56.2884 57.5496 48.9535C73.822 41.6186 103.87 47.1506 103.87 47.1506Z" fill="white" stroke="#212529" stroke-linecap="round" stroke-linejoin="round"/>
<path id="Vector_6" d="M88.044 64.1477C88.044 64.1477 64.3905 71.0512 61.9404 76.5831C59.4903 82.1151 61.0775 90.9293 70.0612 92.8247C79.0449 94.72 86.5184 89.3422 88.1827 83.4712C89.8469 77.6002 91.4032 69.7876 92.975 70.481C94.5468 71.1744 95.5638 76.1517 106.458 77.5848C117.353 79.0178 114.918 60.1721 110.542 57.6758C106.165 55.1795 88.044 64.1477 88.044 64.1477Z" fill="#FFD000" stroke="#212529" stroke-linecap="round" stroke-linejoin="round"/>
<path id="Vector_7" d="M60.6469 81.6677L46.6089 87.3538L61.6177 85.8745L60.6469 81.6677Z" fill="#FFD000" stroke="#212529" stroke-linecap="round" stroke-linejoin="round"/>
<path id="Vector_8" d="M94.7163 74.6869C94.7163 74.6869 101.296 82.8847 103.654 83.9326C106.011 84.9804 104.655 88.5554 100.033 89.1255C95.4098 89.6957 93.7764 87.4767 93.7764 87.4767" stroke="#212529" stroke-linecap="round" stroke-linejoin="round"/>
<path id="Vector_9" d="M107.877 91.4221C107.877 91.4221 104.795 100.467 97.7988 98.8649" stroke="#212529" stroke-linecap="round" stroke-linejoin="round"/>
<path id="Vector_10" d="M47.378 88.0937L53.2798 90.1277C53.2798 90.1277 54.3431 96.2915 56.3617 96.9541C58.3804 97.6167 61.6934 95.1511 59.5515 90.6208C57.4096 86.0904 51.3999 81.7141 53.8962 77.3532C56.3925 72.9924 55.0982 69.9413 52.7097 68.5083C50.3212 67.0752 46.8079 66.4742 60.0908 61.2042C73.3737 55.9341 76.0858 55.8109 70.8774 60.3104C65.669 64.81 93.2211 58.4921 101.496 53.8385C109.771 49.1848 119.232 36.3796 99.4003 25.7162C79.5683 15.0529 65.8694 20.3383 49.8435 33.082C33.8177 45.8256 23.6475 49.7704 24.4796 60.9422C25.3117 72.1141 47.378 88.0937 47.378 88.0937Z" fill="#212529" stroke="#212529" stroke-linecap="round" stroke-linejoin="round"/>
</g>
</g>
</g>
<defs>
<linearGradient id="paint0_linear_823_722" x1="90" y1="0" x2="90" y2="180" gradientUnits="userSpaceOnUse">
<stop stop-color="#FFE600"/>
<stop offset="1" stop-color="#FFE600" stop-opacity="0"/>
</linearGradient>
</defs>
</svg>
