<svg width="46" height="46" viewBox="0 0 46 46" fill="none" xmlns="http://www.w3.org/2000/svg">
<g id="mdi:twitter">
<path id="Vector" d="M42.2421 11.492C40.7992 12.1478 39.2439 12.5788 37.6323 12.7849C39.2814 11.7918 40.5556 10.2177 41.1553 8.32505C39.5999 9.262 37.8759 9.91787 36.0583 10.2927C34.5779 8.68109 32.4978 7.74414 30.1367 7.74414C25.733 7.74414 22.1351 11.342 22.1351 15.7832C22.1351 16.4203 22.2101 17.0387 22.3413 17.6196C15.6702 17.2823 9.72988 14.0779 5.77594 9.22453C5.0826 10.4051 4.68908 11.7918 4.68908 13.2534C4.68908 16.0455 6.0945 18.5191 8.26824 19.9245C6.93776 19.9245 5.70098 19.5497 4.61412 18.9876V19.0438C4.61412 22.9415 7.3875 26.2021 11.0604 26.9329C9.88116 27.2556 8.64319 27.3005 7.44372 27.0641C7.95268 28.6616 8.94947 30.0594 10.294 31.061C11.6384 32.0627 13.263 32.6178 14.9393 32.6483C12.0978 34.8979 8.57555 36.1138 4.95142 36.0963C4.31429 36.0963 3.67717 36.0589 3.04004 35.9839C6.60046 38.2701 10.8355 39.6005 15.3703 39.6005C30.1367 39.6005 38.2507 27.3452 38.2507 16.7201C38.2507 16.3641 38.2507 16.0268 38.232 15.6708C39.8061 14.5464 41.1553 13.1222 42.2421 11.492Z" fill="white"/>
</g>
</svg>
