<svg width="46" height="46" viewBox="0 0 46 46" fill="none" xmlns="http://www.w3.org/2000/svg">
<g id="mdi:github">
<path id="Vector" d="M23.4396 3.99658C20.9788 3.99658 18.542 4.48128 16.2685 5.42301C13.995 6.36473 11.9292 7.74504 10.1891 9.48512C6.67485 12.9994 4.70056 17.7657 4.70056 22.7356C4.70056 31.0183 10.0787 38.0454 17.5181 40.5377C18.455 40.6877 18.7549 40.1067 18.7549 39.6008V36.4339C13.5641 37.5582 12.4585 33.9229 12.4585 33.9229C11.5965 31.7491 10.3785 31.1682 10.3785 31.1682C8.67324 30.0064 10.5097 30.0439 10.5097 30.0439C12.3836 30.175 13.3767 31.974 13.3767 31.974C15.007 34.8223 17.7617 33.9791 18.8298 33.5293C18.9985 32.3113 19.4857 31.4868 20.0104 31.0183C15.8503 30.5498 11.4841 28.9383 11.4841 21.7987C11.4841 19.7187 12.1962 18.0509 13.4142 16.7204C13.2268 16.2519 12.571 14.3031 13.6016 11.7733C13.6016 11.7733 15.1757 11.2673 18.7549 13.6847C20.2352 13.2724 21.8468 13.0663 23.4396 13.0663C25.0324 13.0663 26.644 13.2724 28.1244 13.6847C31.7035 11.2673 33.2776 11.7733 33.2776 11.7733C34.3083 14.3031 33.6524 16.2519 33.465 16.7204C34.683 18.0509 35.3951 19.7187 35.3951 21.7987C35.3951 28.957 31.0102 30.5311 26.8314 30.9996C27.506 31.5805 28.1244 32.7236 28.1244 34.4663V39.6008C28.1244 40.1067 28.4242 40.7064 29.3799 40.5377C36.8193 38.0267 42.1787 31.0183 42.1787 22.7356C42.1787 20.2748 41.694 17.838 40.7522 15.5645C39.8105 13.291 38.4302 11.2252 36.6901 9.48512C34.95 7.74504 32.8843 6.36473 30.6107 5.42301C28.3372 4.48128 25.9005 3.99658 23.4396 3.99658Z" fill="white"/>
</g>
</svg>
