<svg width="29" height="30" viewBox="0 0 29 30" fill="none" xmlns="http://www.w3.org/2000/svg">
<g id="mdi:location">
<path id="Vector" d="M14.4998 14.3958C13.6987 14.3958 12.9303 14.0776 12.3638 13.5111C11.7973 12.9445 11.479 12.1762 11.479 11.375C11.479 10.5738 11.7973 9.80547 12.3638 9.23895C12.9303 8.67243 13.6987 8.35417 14.4998 8.35417C15.301 8.35417 16.0694 8.67243 16.6359 9.23895C17.2024 9.80547 17.5207 10.5738 17.5207 11.375C17.5207 11.7717 17.4425 12.1645 17.2907 12.531C17.1389 12.8975 16.9164 13.2305 16.6359 13.5111C16.3554 13.7916 16.0224 14.0141 15.6559 14.1659C15.2894 14.3177 14.8965 14.3958 14.4998 14.3958ZM14.4998 2.91667C12.2565 2.91667 10.1051 3.80781 8.51889 5.39406C6.93265 6.9803 6.0415 9.13171 6.0415 11.375C6.0415 17.7188 14.4998 27.0833 14.4998 27.0833C14.4998 27.0833 22.9582 17.7188 22.9582 11.375C22.9582 9.13171 22.067 6.9803 20.4808 5.39406C18.8945 3.80781 16.7431 2.91667 14.4998 2.91667Z" fill="#FFE600"/>
</g>
</svg>
