<svg width="45" height="50" viewBox="0 0 45 50" fill="none" xmlns="http://www.w3.org/2000/svg">
<g id="mingcute:notion-fill">
<g id="Group 1000000919">
<ellipse id="Ellipse 27" cx="17.0468" cy="18.4211" rx="5.9211" ry="5.9211" fill="white"/>
<g id="Group">
<path id="Vector" fill-rule="evenodd" clip-rule="evenodd" d="M33.1637 7.98439L33.4942 8.21062L36.9379 10.7631C37.3735 11.0862 37.7379 11.5145 38.0038 12.0161C38.2697 12.5176 38.4304 13.0795 38.4737 13.6597L38.4859 13.9807V38.2268C38.4858 39.1492 38.1892 40.0412 37.6496 40.7418C37.11 41.4425 36.3628 41.9056 35.543 42.0477L35.2735 42.0825L15.2214 43.7976C14.6876 43.8433 14.1516 43.7513 13.655 43.5289C13.1585 43.3066 12.7148 42.9598 12.3585 42.5156L12.1724 42.2623L8.22252 36.4072C7.62223 35.5171 7.26481 34.4539 7.19287 33.3443L7.17896 32.9266V12.8031C7.17901 11.8806 7.47562 10.9886 8.01526 10.288C8.5549 9.58734 9.30202 9.1242 10.1218 8.98215L10.3914 8.94735L30.1983 7.25346C31.2295 7.16515 32.2611 7.41956 33.162 7.98439H33.1637ZM35.0073 16.9682L15.8753 18.604V39.8626L35.0073 38.2268V16.9682ZM29.7895 19.7139C30.2508 19.7139 30.6932 19.9177 31.0194 20.2803C31.3456 20.6429 31.5288 21.1348 31.5288 21.6476V35.1832C31.5288 35.696 31.3456 36.1879 31.0194 36.5505C30.6932 36.9131 30.2508 37.1168 29.7895 37.1168H28.9199C28.6227 37.1169 28.3305 37.0324 28.0711 36.8713C27.8117 36.7101 27.5937 36.4778 27.438 36.1964L22.8324 27.874V36.15C22.8324 36.6629 22.6492 37.1547 22.323 37.5173C21.9968 37.88 21.5544 38.0837 21.0932 38.0837C20.6319 38.0837 20.1895 37.88 19.8633 37.5173C19.5371 37.1547 19.3539 36.6629 19.3539 36.15V22.6144C19.3539 22.1016 19.5371 21.6098 19.8633 21.2471C20.1895 20.8845 20.6319 20.6808 21.0932 20.6808H21.9628C22.2599 20.6807 22.5522 20.7652 22.8116 20.9264C23.071 21.0875 23.2889 21.3198 23.4447 21.6012L28.0502 29.9217V21.6476C28.0502 21.1348 28.2335 20.6429 28.5597 20.2803C28.8858 19.9177 29.3282 19.7139 29.7895 19.7139ZM30.4644 11.1092L12.8229 12.6174L14.8005 14.816L33.929 13.1821L31.5636 11.4282C31.2396 11.1881 30.8526 11.0757 30.4644 11.1092Z" fill="white"/>
</g>
</g>
</g>
</svg>
