<svg width="26" height="26" viewBox="0 0 26 26" fill="none" xmlns="http://www.w3.org/2000/svg">
<g id="mingcute:wallet-4-fill" clip-path="url(#clip0_249_543)">
<g id="Group">
<path id="Vector" fill-rule="evenodd" clip-rule="evenodd" d="M20.5833 5.40474V6.49999C21.158 6.49999 21.7091 6.72826 22.1154 7.13459C22.5217 7.54092 22.75 8.09202 22.75 8.66665V19.5C22.75 20.0746 22.5217 20.6257 22.1154 21.0321C21.7091 21.4384 21.158 21.6667 20.5833 21.6667H5.41667C4.84203 21.6667 4.29093 21.4384 3.8846 21.0321C3.47827 20.6257 3.25 20.0746 3.25 19.5V8.66665C3.25 7.53457 4.15458 6.50757 5.21408 6.20532L17.1308 2.8004C17.5338 2.6852 17.9582 2.66514 18.3704 2.74182C18.7825 2.8185 19.1713 2.98982 19.506 3.24229C19.8407 3.49476 20.1122 3.82148 20.2991 4.19672C20.4861 4.57197 20.5834 4.9855 20.5833 5.40474ZM16.7917 12.4583C16.3607 12.4583 15.9474 12.6295 15.6426 12.9343C15.3379 13.239 15.1667 13.6523 15.1667 14.0833C15.1667 14.5143 15.3379 14.9276 15.6426 15.2324C15.9474 15.5371 16.3607 15.7083 16.7917 15.7083C17.2226 15.7083 17.636 15.5371 17.9407 15.2324C18.2455 14.9276 18.4167 14.5143 18.4167 14.0833C18.4167 13.6523 18.2455 13.239 17.9407 12.9343C17.636 12.6295 17.2226 12.4583 16.7917 12.4583ZM18.4167 5.40474C18.4167 5.32827 18.4006 5.25265 18.3693 5.18287C18.3381 5.11308 18.2924 5.0507 18.2353 4.99984C18.1782 4.94898 18.1109 4.91079 18.038 4.88778C17.9651 4.86476 17.8881 4.85745 17.8122 4.86632L17.7255 4.88365L12.0683 6.49999H18.4167V5.40474Z" fill="#1F1330"/>
</g>
</g>
<defs>
<clipPath id="clip0_249_543">
<rect width="26" height="26" fill="white"/>
</clipPath>
</defs>
</svg>
