<svg width="60" height="60" viewBox="0 0 60 60" fill="none" xmlns="http://www.w3.org/2000/svg">
<g id="polygon.31b1e7a0" clip-path="url(#clip0_436_1112)">
<path id="Vector" d="M30 60C46.5685 60 60 46.5685 60 30C60 13.4315 46.5685 0 30 0C13.4315 0 0 13.4315 0 30C0 46.5685 13.4315 60 30 60Z" fill="#8247E5"/>
<path id="Vector_2" d="M39.6443 24.1691C38.9589 23.8131 38.0777 23.8131 37.2943 24.1691L31.8114 27.1069L28.0907 28.9763L22.7057 31.914C22.0202 32.2701 21.1391 32.2701 20.3557 31.914L16.1456 29.5993C15.4602 29.2432 14.9706 28.5311 14.9706 27.7299V23.2789C14.9706 22.5668 15.3623 21.8546 16.1456 21.4095L20.3557 19.1841C21.0411 18.8278 21.9223 18.8278 22.7057 19.1841L26.9158 21.4986C27.6011 21.8546 28.0907 22.5668 28.0907 23.3679V26.3057L31.8114 24.3473V21.3204C31.8114 20.6083 31.4197 19.8962 30.6364 19.4511L22.8036 15.2671C22.1181 14.911 21.237 14.911 20.4536 15.2671L12.4249 19.5401C11.6416 19.8962 11.25 20.6083 11.25 21.3204V29.6884C11.25 30.4005 11.6416 31.1128 12.4249 31.5579L20.3557 35.7418C21.0411 36.0979 21.9223 36.0979 22.7057 35.7418L28.0907 32.8931L31.8114 30.9347L37.1964 28.086C37.8819 27.7299 38.763 27.7299 39.5464 28.086L43.7565 30.3116C44.4418 30.6677 44.9314 31.3798 44.9314 32.181V36.6321C44.9314 37.3442 44.5399 38.0563 43.7565 38.5014L39.6443 40.7271C38.9589 41.0831 38.0777 41.0831 37.2943 40.7271L33.0842 38.5014C32.3989 38.1454 31.9093 37.4332 31.9093 36.6321V33.7834L28.1886 35.7418V38.6796C28.1886 39.3917 28.5802 40.1038 29.3636 40.5489L37.2943 44.733C37.9798 45.0891 38.8609 45.0891 39.6443 44.733L47.5751 40.5489C48.2604 40.1929 48.75 39.4807 48.75 38.6796V30.2226C48.75 29.5104 48.3583 28.7983 47.5751 28.3532L39.6443 24.1691Z" fill="white"/>
</g>
<defs>
<clipPath id="clip0_436_1112">
<rect width="60" height="60" fill="white"/>
</clipPath>
</defs>
</svg>
