<svg width="102" height="102" viewBox="0 0 102 102" fill="none" xmlns="http://www.w3.org/2000/svg">
<g id="Frame">
<g clip-path="url(#clip0_249_1124)">
<g id="Group">
<path id="Vector" d="M24.4216 53.7588L26.1736 52.0068L29.3534 55.1865L36.6965 47.8434L38.4485 49.5954L29.3534 58.6905L24.4216 53.7588Z" fill="#FFE600"/>
<path id="Vector_2" d="M-0.5 97C-0.5 100.038 1.96243 102.5 5 102.5H58.3089C61.3465 102.5 63.8089 100.038 63.8089 97V87.0687C63.8089 84.5834 65.8237 82.5687 68.3089 82.5687H96.9973C100.035 82.5687 102.497 80.1062 102.497 77.0686V45.939C102.497 42.9014 100.035 40.439 96.9973 40.439H68.3089C65.8237 40.439 63.8089 38.4242 63.8089 35.939V5C63.8089 1.96243 61.3465 -0.5 58.3089 -0.5H5C1.96243 -0.5 -0.5 1.96244 -0.5 5V97ZM7.47405 99.0259C4.98877 99.0259 2.97405 97.0112 2.97405 94.526V7.47405C2.97405 4.98877 4.98877 2.97405 7.47405 2.97405H55.8349C58.3202 2.97405 60.3349 4.98877 60.3349 7.47405V94.5259C60.3349 97.0112 58.3202 99.0259 55.8349 99.0259H7.47405ZM68.3471 79.0892C65.8618 79.0892 63.8471 77.0744 63.8471 74.5892V60.805C63.8471 58.3198 65.8618 56.305 68.3471 56.305H94.5205C97.0058 56.305 99.0205 58.3198 99.0205 60.805V74.5892C99.0205 77.0744 97.0058 79.0892 94.5205 79.0892H68.3471ZM68.302 52.8256C65.8416 52.8256 63.8471 50.831 63.8471 48.3706C63.8471 45.9103 65.8416 43.9157 68.302 43.9157H94.5656C97.026 43.9157 99.0205 45.9103 99.0205 48.3706C99.0205 50.831 97.026 52.8256 94.5656 52.8256H68.302Z" fill="white" stroke="white"/>
<path id="Vector_3" d="M35.4977 87.6325H27.8467V90.1093H35.4977V87.6325Z" fill="white"/>
<path id="Vector_4" d="M43.0642 12.5392H20.28V15.0159H43.0642V12.5392Z" fill="white"/>
<path id="Vector_5" d="M31.6721 72.3468C20.9504 72.3468 12.2285 63.625 12.2285 52.9032C12.2285 42.1814 20.9504 33.4596 31.6721 33.4596C42.3939 33.4596 51.1158 42.1814 51.1158 52.9032C51.1185 63.6223 42.3939 72.3468 31.6721 72.3468ZM31.6721 35.9336C22.3154 35.9336 14.7053 43.5438 14.7053 52.9005C14.7053 62.2572 22.3154 69.8673 31.6721 69.8673C41.0288 69.8673 48.639 62.2572 48.639 52.9005C48.639 43.5465 41.0288 35.9336 31.6721 35.9336Z" fill="#FFE600" stroke="#FFE600"/>
<path id="Vector_6" d="M89.5998 67.0881H87.123V69.5649H89.5998V67.0881Z" fill="white"/>
<path id="Vector_7" d="M82.8639 29.6727C78.0774 29.6727 74.1819 25.7841 74.1819 21.0061C74.1819 16.784 77.3293 13.1032 81.5056 12.4458L82.6992 12.2573L82.8808 11.0658C83.52 6.87268 87.2097 3.70909 91.4635 3.70909C96.25 3.70909 100.146 7.59772 100.146 12.3757C100.146 16.5979 96.9981 20.2786 92.8218 20.936L91.6282 21.1245L91.4466 22.316C90.8074 26.5091 87.1177 29.6727 82.8639 29.6727ZM82.8639 14.5363C79.2904 14.5363 76.3851 17.4389 76.3851 21.0037C76.3851 24.5709 79.2928 27.471 82.8639 27.471C86.4374 27.471 89.3427 24.5685 89.3427 21.0037C89.3427 17.4389 86.4374 14.5363 82.8639 14.5363ZM91.4635 5.90596C88.3767 5.90596 85.7038 8.10041 85.1058 11.1214L84.8419 12.4579L86.1057 12.9678C88.2653 13.8403 90.0109 15.5731 90.897 17.7241L91.4151 18.9832L92.7516 18.7126C95.7585 18.1035 97.9423 15.4378 97.9423 12.3733C97.9423 8.80853 95.037 5.90596 91.4635 5.90596Z" fill="#FFE600" stroke="#FFE600"/>
</g>
</g>
</g>
<defs>
<clipPath id="clip0_249_1124">
<rect width="102" height="102" fill="white"/>
</clipPath>
</defs>
</svg>
