<svg width="31" height="31" viewBox="0 0 31 31" fill="none" xmlns="http://www.w3.org/2000/svg">
<path id="Vector" fill-rule="evenodd" clip-rule="evenodd" d="M21.5727 20.266L29.6243 28.3176C30.1246 28.8176 30.129 29.6241 29.6267 30.1264C29.1278 30.6253 28.3184 30.6245 27.8179 30.1241L19.7663 22.0725C17.6819 23.76 15.0269 24.7709 12.1357 24.7709C5.43307 24.7709 0 19.3377 0 12.6357C0 5.93307 5.43318 0.5 12.1357 0.5C18.8378 0.5 24.2709 5.93318 24.2709 12.6357C24.2709 15.5266 23.26 18.1816 21.5725 20.2663L21.5727 20.266ZM12.1355 22.2164C17.4267 22.2164 21.7162 17.9269 21.7162 12.6357C21.7162 7.34433 17.4267 3.05503 12.1355 3.05503C6.84411 3.05503 2.55482 7.34433 2.55482 12.6357C2.55482 17.9269 6.84411 22.2164 12.1355 22.2164Z" fill="white"/>
</svg>
