<svg width="130" height="99" viewBox="0 0 130 99" fill="none" xmlns="http://www.w3.org/2000/svg">
<g id="Frame" clip-path="url(#clip0_93_489)">
<g id="Group">
<g id="Group_2">
<g id="Group_3">
<path id="Vector" d="M6.26035 98.3784H4.72582C4.40357 98.3784 4.1427 98.1191 4.1427 97.7988C4.1427 97.4785 4.40357 97.2192 4.72582 97.2192H6.26035C6.58261 97.2192 6.84348 97.4785 6.84348 97.7988C6.82813 98.1191 6.56726 98.3784 6.26035 98.3784Z" fill="#848080"/>
</g>
<g id="Group_4">
<path id="Vector_2" d="M126.077 98.3784H123.084C122.762 98.3784 122.501 98.1191 122.501 97.7988C122.501 97.4785 122.762 97.2192 123.084 97.2192H126.077C126.399 97.2192 126.66 97.4785 126.66 97.7988C126.644 98.1191 126.383 98.3784 126.077 98.3784ZM120.077 98.3784H117.084C116.762 98.3784 116.501 98.1191 116.501 97.7988C116.501 97.4785 116.762 97.2192 117.084 97.2192H120.077C120.399 97.2192 120.66 97.4785 120.66 97.7988C120.66 98.1191 120.399 98.3784 120.077 98.3784ZM114.092 98.3784H111.1C110.777 98.3784 110.516 98.1191 110.516 97.7988C110.516 97.4785 110.777 97.2192 111.1 97.2192H114.092C114.414 97.2192 114.675 97.4785 114.675 97.7988C114.66 98.1191 114.414 98.3784 114.092 98.3784ZM108.092 98.3784H105.1C104.777 98.3784 104.516 98.1191 104.516 97.7988C104.516 97.4785 104.777 97.2192 105.1 97.2192H108.092C108.414 97.2192 108.675 97.4785 108.675 97.7988C108.675 98.1191 108.414 98.3784 108.092 98.3784ZM102.107 98.3784H99.1148C98.7926 98.3784 98.5317 98.1191 98.5317 97.7988C98.5317 97.4785 98.7926 97.2192 99.1148 97.2192H102.107C102.429 97.2192 102.69 97.4785 102.69 97.7988C102.69 98.1191 102.429 98.3784 102.107 98.3784ZM96.1225 98.3784H93.1302C92.8079 98.3784 92.547 98.1191 92.547 97.7988C92.547 97.4785 92.8079 97.2192 93.1302 97.2192H96.1225C96.4447 97.2192 96.7056 97.4785 96.7056 97.7988C96.6903 98.1191 96.4294 98.3784 96.1225 98.3784ZM90.1225 98.3784H87.1301C86.8079 98.3784 86.5624 98.1191 86.5624 97.7988C86.5624 97.4785 86.8232 97.2192 87.1301 97.2192H90.1225C90.4447 97.2192 90.7056 97.4785 90.7056 97.7988C90.7056 98.1191 90.4447 98.3784 90.1225 98.3784ZM84.1378 98.3784H81.1455C80.8232 98.3784 80.5623 98.1191 80.5623 97.7988C80.5623 97.4785 80.8232 97.2192 81.1455 97.2192H84.1378C84.4601 97.2192 84.7209 97.4785 84.7209 97.7988C84.7056 98.1191 84.4601 98.3784 84.1378 98.3784ZM78.1378 98.3784H75.1455C74.8232 98.3784 74.5623 98.1191 74.5623 97.7988C74.5623 97.4785 74.8232 97.2192 75.1455 97.2192H78.1378C78.46 97.2192 78.7209 97.4785 78.7209 97.7988C78.7209 98.1191 78.46 98.3784 78.1378 98.3784ZM72.1531 98.3784H69.1608C68.8385 98.3784 68.5777 98.1191 68.5777 97.7988C68.5777 97.4785 68.8385 97.2192 69.1608 97.2192H72.1531C72.4754 97.2192 72.7362 97.4785 72.7362 97.7988C72.7362 98.1191 72.4754 98.3784 72.1531 98.3784ZM66.1684 98.3784H63.1761C62.8539 98.3784 62.593 98.1191 62.593 97.7988C62.593 97.4785 62.8539 97.2192 63.1761 97.2192H66.1684C66.4907 97.2192 66.7516 97.4785 66.7516 97.7988C66.7362 98.1191 66.4754 98.3784 66.1684 98.3784ZM60.1684 98.3784H57.1761C56.8538 98.3784 56.593 98.1191 56.593 97.7988C56.593 97.4785 56.8538 97.2192 57.1761 97.2192H60.1684C60.4907 97.2192 60.7515 97.4785 60.7515 97.7988C60.7515 98.1191 60.4907 98.3784 60.1684 98.3784ZM54.1838 98.3784H51.1914C50.8692 98.3784 50.6083 98.1191 50.6083 97.7988C50.6083 97.4785 50.8692 97.2192 51.1914 97.2192H54.1838C54.506 97.2192 54.7669 97.4785 54.7669 97.7988C54.7515 98.1191 54.506 98.3784 54.1838 98.3784ZM48.1837 98.3784H45.1914C44.8691 98.3784 44.6083 98.1191 44.6083 97.7988C44.6083 97.4785 44.8691 97.2192 45.1914 97.2192H48.1837C48.506 97.2192 48.7669 97.4785 48.7669 97.7988C48.7669 98.1191 48.506 98.3784 48.1837 98.3784ZM42.1991 98.3784H39.2067C38.8845 98.3784 38.6236 98.1191 38.6236 97.7988C38.6236 97.4785 38.8845 97.2192 39.2067 97.2192H42.1991C42.5213 97.2192 42.7822 97.4785 42.7822 97.7988C42.7668 98.1191 42.5213 98.3784 42.1991 98.3784ZM36.2144 98.3784H33.2221C32.8998 98.3784 32.6389 98.1191 32.6389 97.7988C32.6389 97.4785 32.8998 97.2192 33.2221 97.2192H36.2144C36.5366 97.2192 36.7975 97.4785 36.7975 97.7988C36.7822 98.1191 36.5213 98.3784 36.2144 98.3784ZM30.2144 98.3784H27.222C26.8998 98.3784 26.6389 98.1191 26.6389 97.7988C26.6389 97.4785 26.8998 97.2192 27.222 97.2192H30.2144C30.5366 97.2192 30.7975 97.4785 30.7975 97.7988C30.7975 98.1191 30.5366 98.3784 30.2144 98.3784ZM24.2297 98.3784H21.2374C20.9151 98.3784 20.6542 98.1191 20.6542 97.7988C20.6542 97.4785 20.9151 97.2192 21.2374 97.2192H24.2297C24.552 97.2192 24.8128 97.4785 24.8128 97.7988C24.7975 98.1191 24.552 98.3784 24.2297 98.3784ZM18.2297 98.3784H15.2373C14.9151 98.3784 14.6542 98.1191 14.6542 97.7988C14.6542 97.4785 14.9151 97.2192 15.2373 97.2192H18.2297C18.5519 97.2192 18.8128 97.4785 18.8128 97.7988C18.8128 98.1191 18.5519 98.3784 18.2297 98.3784ZM12.245 98.3784H9.25268C8.93043 98.3784 8.66956 98.1191 8.66956 97.7988C8.66956 97.4785 8.93043 97.2192 9.25268 97.2192H12.245C12.5673 97.2192 12.8281 97.4785 12.8281 97.7988C12.8128 98.1191 12.5673 98.3784 12.245 98.3784Z" fill="#848080"/>
</g>
<g id="Group_5">
<path id="Vector_3" d="M130.603 98.3784H129.069C128.747 98.3784 128.486 98.1191 128.486 97.7988C128.486 97.4785 128.747 97.2192 129.069 97.2192H130.603C130.926 97.2192 131.186 97.4785 131.186 97.7988C131.171 98.1191 130.926 98.3784 130.603 98.3784Z" fill="#848080"/>
</g>
</g>
<g id="Group_6">
<path id="Vector_4" d="M8.36267 71.0476C5.69258 71.0476 3.51355 68.8818 3.51355 66.2281C3.51355 63.5743 5.69258 61.4086 8.36267 61.4086C11.0328 61.4086 13.2118 63.5743 13.2118 66.2281C13.2271 68.8818 11.0481 71.0476 8.36267 71.0476ZM8.36267 63.6811C6.9509 63.6811 5.81535 64.8249 5.81535 66.2128C5.81535 67.6007 6.96624 68.7446 8.36267 68.7446C9.75909 68.7446 10.91 67.6007 10.91 66.2128C10.91 64.8249 9.77444 63.6811 8.36267 63.6811Z" fill="white"/>
</g>
<g id="Group_7">
<path id="Vector_5" d="M36.3525 58.8463C33.6825 58.8463 31.5034 56.6806 31.5034 54.0268C31.5034 51.373 33.6825 49.2073 36.3525 49.2073C39.0226 49.2073 41.2017 51.373 41.2017 54.0268C41.217 56.6806 39.038 58.8463 36.3525 58.8463ZM36.3525 51.4798C34.9408 51.4798 33.8052 52.6236 33.8052 54.0115C33.8052 55.3994 34.9561 56.5433 36.3525 56.5433C37.749 56.5433 38.8999 55.3994 38.8999 54.0115C38.8999 52.6236 37.7643 51.4798 36.3525 51.4798Z" fill="white"/>
</g>
<g id="Group_8">
<path id="Vector_6" d="M64.3424 88.1904C61.6723 88.1904 59.4933 86.0247 59.4933 83.3709C59.4933 80.7171 61.6723 78.5514 64.3424 78.5514C67.0125 78.5514 69.1915 80.7171 69.1915 83.3709C69.2069 86.0247 67.0278 88.1904 64.3424 88.1904ZM64.3424 80.8391C62.9306 80.8391 61.7951 81.983 61.7951 83.3709C61.7951 84.7588 62.946 85.9027 64.3424 85.9027C65.7388 85.9027 66.8897 84.7588 66.8897 83.3709C66.8897 81.983 65.7542 80.8391 64.3424 80.8391Z" fill="white"/>
</g>
<g id="Group_9">
<path id="Vector_7" d="M92.3323 45.9129C89.6622 45.9129 87.4832 43.7472 87.4832 41.0934C87.4832 38.4397 89.6622 36.2739 92.3323 36.2739C95.0024 36.2739 97.1814 38.4397 97.1814 41.0934C97.1814 43.7472 95.0177 45.9129 92.3323 45.9129ZM92.3323 38.5464C90.9205 38.5464 89.785 39.6903 89.785 41.0782C89.785 42.4661 90.9358 43.6099 92.3323 43.6099C93.7287 43.6099 94.8796 42.4661 94.8796 41.0782C94.8796 39.6903 93.744 38.5464 92.3323 38.5464Z" fill="white"/>
</g>
<g id="Group_10">
<path id="Vector_8" d="M120.322 35.3131C117.652 35.3131 115.473 33.1474 115.473 30.4936C115.473 27.8398 117.652 25.6741 120.322 25.6741C122.992 25.6741 125.171 27.8398 125.171 30.4936C125.171 33.1474 123.007 35.3131 120.322 35.3131ZM120.322 27.9466C118.91 27.9466 117.775 29.0904 117.775 30.4783C117.775 31.8662 118.926 33.0101 120.322 33.0101C121.734 33.0101 122.869 31.8662 122.869 30.4783C122.869 29.0904 121.734 27.9466 120.322 27.9466Z" fill="white"/>
</g>
<g id="Group_11">
<path id="Vector_9" d="M36.3526 87.8091C36.3065 87.8091 36.2605 87.8091 36.2145 87.7938L8.23996 82.8981C7.81029 82.8218 7.53407 82.4253 7.6108 82.0135C7.68753 81.6017 8.08651 81.3119 8.50083 81.3882L36.4907 86.2839C36.905 86.3602 37.1812 86.7567 37.1198 87.1685C37.0431 87.5498 36.7209 87.8091 36.3526 87.8091Z" fill="#0CE770"/>
</g>
<g id="Group_12">
<path id="Vector_10" d="M36.3525 87.809C36.2298 87.809 36.0916 87.7785 35.9842 87.7175C35.6159 87.5192 35.4778 87.0465 35.6927 86.6804L63.6825 37.0365C63.882 36.6705 64.3577 36.5332 64.726 36.7467C65.0943 36.945 65.2324 37.4178 65.0176 37.7838L37.0277 87.4277C36.8896 87.6718 36.6287 87.809 36.3525 87.809Z" fill="#0CE770"/>
</g>
<g id="Group_13">
<path id="Vector_11" d="M92.3322 65.0232C92.1481 65.0232 91.9486 64.9469 91.7951 64.8097L63.8206 37.9516C63.5137 37.6619 63.5137 37.1738 63.8053 36.8688C64.0969 36.5637 64.5879 36.5637 64.8948 36.8535L92.8847 63.7116C93.1916 64.0013 93.1916 64.4894 92.9 64.7944C92.7312 64.9469 92.5317 65.0232 92.3322 65.0232Z" fill="#0CE770"/>
</g>
<g id="Group_14">
<path id="Vector_12" d="M92.3322 65.0232C92.2248 65.0232 92.102 64.9927 91.9946 64.9469C91.6109 64.7639 91.4575 64.3064 91.6416 63.9251L119.631 6.85364C119.816 6.47235 120.276 6.31983 120.66 6.50285C121.043 6.68587 121.197 7.14342 121.013 7.52471L93.0227 64.5961C92.8999 64.8707 92.6237 65.0232 92.3322 65.0232Z" fill="#0CE770"/>
</g>
<g id="Group_15">
<g id="Group_16">
<path id="Vector_13" d="M11.754 65.5112C11.4624 65.5112 11.1709 65.3435 11.0481 65.0537C10.8793 64.6724 11.0481 64.2149 11.4471 64.0471L32.6543 54.8046C33.038 54.6369 33.4983 54.8199 33.6671 55.2012C33.8359 55.5825 33.6671 56.04 33.2681 56.2078L12.0609 65.435C11.9688 65.4807 11.8614 65.5112 11.754 65.5112Z" fill="white"/>
</g>
<g id="Group_17">
<path id="Vector_14" d="M61.7951 81.4644C61.5956 81.4644 61.3961 81.3881 61.2427 81.2203L38.3475 57.2143C38.0559 56.9093 38.0713 56.4213 38.3782 56.1315C38.6851 55.8417 39.1761 55.8569 39.4677 56.162L62.3629 80.1832C62.6544 80.4883 62.6391 80.9763 62.3322 81.2661C62.1787 81.3881 61.9946 81.4644 61.7951 81.4644Z" fill="white"/>
</g>
<g id="Group_18">
<path id="Vector_15" d="M66.3833 81.0526C66.2452 81.0526 66.0918 81.0068 65.969 80.9306C65.6161 80.7018 65.524 80.229 65.7542 79.8782L89.6775 43.7472C89.9077 43.3964 90.3834 43.3049 90.7364 43.5337C91.0893 43.7625 91.1814 44.2353 90.9512 44.5861L67.0278 80.7171C66.8744 80.9458 66.6289 81.0526 66.3833 81.0526Z" fill="white"/>
</g>
<g id="Group_19">
<path id="Vector_16" d="M95.7849 40.5444C95.478 40.5444 95.1864 40.3614 95.0636 40.0563C94.9102 39.6598 95.1097 39.2175 95.4933 39.065L116.516 30.9206C116.915 30.7681 117.36 30.9664 117.514 31.3477C117.667 31.7442 117.468 32.1865 117.084 32.339L96.0611 40.4834C95.9844 40.5291 95.8923 40.5444 95.7849 40.5444Z" fill="white"/>
</g>
</g>
<g id="Group_20">
<g id="Vector_17" filter="url(#filter0_d_93_489)">
<path d="M12.0762 82.1507C12.0762 84.1792 10.419 85.8264 8.37803 85.8264C6.3371 85.8264 4.67981 84.1792 4.67981 82.1507C4.67981 80.1223 6.3371 78.4751 8.37803 78.4751C10.419 78.4751 12.0762 80.1223 12.0762 82.1507Z" fill="#0CE770"/>
</g>
<g id="Vector_18" filter="url(#filter1_d_93_489)">
<path d="M68.056 37.4026C68.056 39.431 66.3987 41.0782 64.3578 41.0782C62.3168 41.0782 60.6595 39.431 60.6595 37.4026C60.6595 35.3741 62.3168 33.7269 64.3578 33.7269C66.3833 33.7269 68.056 35.3741 68.056 37.4026Z" fill="#0CE770"/>
</g>
<g id="Vector_19" filter="url(#filter2_d_93_489)">
<path d="M96.0305 64.2606C96.0305 66.2891 94.3732 67.9362 92.3323 67.9362C90.2913 67.9362 88.634 66.2891 88.634 64.2606C88.634 62.2321 90.2913 60.585 92.3323 60.585C94.3732 60.585 96.0305 62.2321 96.0305 64.2606Z" fill="#0CE770"/>
</g>
<g id="Vector_20" filter="url(#filter3_d_93_489)">
<path d="M124.02 7.18918C124.02 9.21764 122.363 10.8648 120.322 10.8648C118.281 10.8648 116.624 9.21764 116.624 7.18918C116.624 5.16072 118.281 3.51355 120.322 3.51355C122.363 3.51355 124.02 5.16072 124.02 7.18918Z" fill="#0CE770"/>
</g>
<g id="Vector_21" filter="url(#filter4_d_93_489)">
<path d="M36.3525 83.3708C34.3116 83.3708 32.6543 85.018 32.6543 87.0465C32.6543 89.0749 34.3116 90.7221 36.3525 90.7221C38.3934 90.7221 40.0507 89.0749 40.0507 87.0465C40.0661 85.018 38.4088 83.3708 36.3525 83.3708Z" fill="#0CE770"/>
</g>
</g>
</g>
</g>
<defs>
<filter id="filter0_d_93_489" x="2.67981" y="76.4751" width="11.3965" height="11.3513" filterUnits="userSpaceOnUse" color-interpolation-filters="sRGB">
<feFlood flood-opacity="0" result="BackgroundImageFix"/>
<feColorMatrix in="SourceAlpha" type="matrix" values="0 0 0 0 0 0 0 0 0 0 0 0 0 0 0 0 0 0 127 0" result="hardAlpha"/>
<feOffset/>
<feGaussianBlur stdDeviation="1"/>
<feComposite in2="hardAlpha" operator="out"/>
<feColorMatrix type="matrix" values="0 0 0 0 0.0470588 0 0 0 0 0.905882 0 0 0 0 0.439216 0 0 0 0.93 0"/>
<feBlend mode="normal" in2="BackgroundImageFix" result="effect1_dropShadow_93_489"/>
<feBlend mode="normal" in="SourceGraphic" in2="effect1_dropShadow_93_489" result="shape"/>
</filter>
<filter id="filter1_d_93_489" x="58.6595" y="31.7269" width="11.3965" height="11.3513" filterUnits="userSpaceOnUse" color-interpolation-filters="sRGB">
<feFlood flood-opacity="0" result="BackgroundImageFix"/>
<feColorMatrix in="SourceAlpha" type="matrix" values="0 0 0 0 0 0 0 0 0 0 0 0 0 0 0 0 0 0 127 0" result="hardAlpha"/>
<feOffset/>
<feGaussianBlur stdDeviation="1"/>
<feComposite in2="hardAlpha" operator="out"/>
<feColorMatrix type="matrix" values="0 0 0 0 0.0470588 0 0 0 0 0.905882 0 0 0 0 0.439216 0 0 0 0.93 0"/>
<feBlend mode="normal" in2="BackgroundImageFix" result="effect1_dropShadow_93_489"/>
<feBlend mode="normal" in="SourceGraphic" in2="effect1_dropShadow_93_489" result="shape"/>
</filter>
<filter id="filter2_d_93_489" x="86.634" y="58.585" width="11.3965" height="11.3513" filterUnits="userSpaceOnUse" color-interpolation-filters="sRGB">
<feFlood flood-opacity="0" result="BackgroundImageFix"/>
<feColorMatrix in="SourceAlpha" type="matrix" values="0 0 0 0 0 0 0 0 0 0 0 0 0 0 0 0 0 0 127 0" result="hardAlpha"/>
<feOffset/>
<feGaussianBlur stdDeviation="1"/>
<feComposite in2="hardAlpha" operator="out"/>
<feColorMatrix type="matrix" values="0 0 0 0 0.0470588 0 0 0 0 0.905882 0 0 0 0 0.439216 0 0 0 0.93 0"/>
<feBlend mode="normal" in2="BackgroundImageFix" result="effect1_dropShadow_93_489"/>
<feBlend mode="normal" in="SourceGraphic" in2="effect1_dropShadow_93_489" result="shape"/>
</filter>
<filter id="filter3_d_93_489" x="114.624" y="1.51355" width="11.3965" height="11.3513" filterUnits="userSpaceOnUse" color-interpolation-filters="sRGB">
<feFlood flood-opacity="0" result="BackgroundImageFix"/>
<feColorMatrix in="SourceAlpha" type="matrix" values="0 0 0 0 0 0 0 0 0 0 0 0 0 0 0 0 0 0 127 0" result="hardAlpha"/>
<feOffset/>
<feGaussianBlur stdDeviation="1"/>
<feComposite in2="hardAlpha" operator="out"/>
<feColorMatrix type="matrix" values="0 0 0 0 0.0470588 0 0 0 0 0.905882 0 0 0 0 0.439216 0 0 0 0.93 0"/>
<feBlend mode="normal" in2="BackgroundImageFix" result="effect1_dropShadow_93_489"/>
<feBlend mode="normal" in="SourceGraphic" in2="effect1_dropShadow_93_489" result="shape"/>
</filter>
<filter id="filter4_d_93_489" x="30.6543" y="81.3708" width="11.3965" height="11.3513" filterUnits="userSpaceOnUse" color-interpolation-filters="sRGB">
<feFlood flood-opacity="0" result="BackgroundImageFix"/>
<feColorMatrix in="SourceAlpha" type="matrix" values="0 0 0 0 0 0 0 0 0 0 0 0 0 0 0 0 0 0 127 0" result="hardAlpha"/>
<feOffset/>
<feGaussianBlur stdDeviation="1"/>
<feComposite in2="hardAlpha" operator="out"/>
<feColorMatrix type="matrix" values="0 0 0 0 0.0470588 0 0 0 0 0.905882 0 0 0 0 0.439216 0 0 0 0.93 0"/>
<feBlend mode="normal" in2="BackgroundImageFix" result="effect1_dropShadow_93_489"/>
<feBlend mode="normal" in="SourceGraphic" in2="effect1_dropShadow_93_489" result="shape"/>
</filter>
<clipPath id="clip0_93_489">
<rect width="130" height="98.3784" fill="white"/>
</clipPath>
</defs>
</svg>
